NotoSans-BoldItalic.ufo
<glyph name="numbersign" format="2">
  <advance width="1323"/>
  <unicode hex="0023"/>
  <outline>
    <contour>
      <point x="166" y="0" type="line"/>
      <point x="381" y="0" type="line"/>
      <point x="496" y="408" type="line"/>
      <point x="690" y="408" type="line"/>
      <point x="573" y="0" type="line"/>
      <point x="793" y="0" type="line"/>
      <point x="909" y="408" type="line"/>
      <point x="1206" y="408" type="line"/>
      <point x="1225" y="614" type="line"/>
      <point x="967" y="614" type="line"/>
      <point x="1036" y="846" type="line"/>
      <point x="1315" y="846" type="line"/>
      <point x="1333" y="1055" type="line"/>
      <point x="1094" y="1055" type="line"/>
      <point x="1210" y="1462" type="line"/>
      <point x="995" y="1462" type="line"/>
      <point x="879" y="1055" type="line"/>
      <point x="680" y="1055" type="line"/>
      <point x="797" y="1462" type="line"/>
      <point x="580" y="1462" type="line"/>
      <point x="461" y="1055" type="line"/>
      <point x="172" y="1055" type="line"/>
      <point x="154" y="846" type="line"/>
      <point x="406" y="846" type="line"/>
      <point x="336" y="614" type="line"/>
      <point x="59" y="614" type="line"/>
      <point x="41" y="408" type="line"/>
      <point x="279" y="408" type="line"/>
    </contour>
    <contour>
      <point x="553" y="614" type="line"/>
      <point x="623" y="846" type="line"/>
      <point x="819" y="846" type="line"/>
      <point x="750" y="614" type="line"/>
    </contour>
  </outline>
</glyph>
<glyph name="one" format="2">
  <advance width="1128"/>
  <unicode hex="0031"/>
  <outline>
    <contour>
      <point x="383" y="0" type="line"/>
      <point x="688" y="0" type="line"/>
      <point x="997" y="1462" type="line"/>
      <point x="748" y="1462" type="line"/>
      <point x="182" y="1114" type="line"/>
      <point x="315" y="899" type="line"/>
      <point x="510" y="1022" type="line" smooth="yes"/>
      <point x="553" y="1049"/>
      <point x="614" y="1096"/>
      <point x="639" y="1116" type="curve"/>
      <point x="612" y="1028"/>
      <point x="578" y="899"/>
      <point x="563" y="829" type="curve" smooth="yes"/>
    </contour>
  </outline>
</glyph>
<glyph name="two" format="2">
  <advance width="1128"/>
  <unicode hex="0032"/>
  <outline>
    <contour>
      <point x="-49" y="0" type="line"/>
      <point x="913" y="0" type="line"/>
      <point x="967" y="260" type="line"/>
      <point x="399" y="260" type="line"/>
      <point x="399" y="270" type="line"/>
      <point x="668" y="492" type="line" smooth="yes"/>
      <point x="915" y="694"/>
      <point x="1098" y="866"/>
      <point x="1098" y="1126" type="curve" smooth="yes"/>
      <point x="1098" y="1309"/>
      <point x="973" y="1483"/>
      <point x="686" y="1483" type="curve" smooth="yes"/>
      <point x="477" y="1483"/>
      <point x="322" y="1393"/>
      <point x="184" y="1276" type="curve"/>
      <point x="330" y="1073" type="line"/>
      <point x="455" y="1176"/>
      <point x="539" y="1225"/>
      <point x="637" y="1225" type="curve" smooth="yes"/>
      <point x="729" y="1225"/>
      <point x="788" y="1171"/>
      <point x="788" y="1071" type="curve" smooth="yes"/>
      <point x="788" y="958"/>
      <point x="709" y="848"/>
      <point x="471" y="637" type="curve" smooth="yes"/>
      <point x="-6" y="213" type="line"/>
    </contour>
  </outline>
</glyph>
<glyph name="seven" format="2">
  <advance width="1128"/>
  <unicode hex="0037"/>
  <outline>
    <contour>
      <point x="78" y="0" type="line"/>
      <point x="424" y="0" type="line"/>
      <point x="1176" y="1268" type="line"/>
      <point x="1217" y="1462" type="line"/>
      <point x="242" y="1462" type="line"/>
      <point x="186" y="1202" type="line"/>
      <point x="815" y="1202" type="line"/>
    </contour>
  </outline>
</glyph>
<glyph name="eight" format="2">
  <advance width="1128"/>
  <unicode hex="0038"/>
  <outline>
    <contour>
      <point x="514" y="-20" type="curve" smooth="yes"/>
      <point x="868" y="-20"/>
      <point x="1032" y="186"/>
      <point x="1032" y="401" type="curve" smooth="yes"/>
      <point x="1032" y="588"/>
      <point x="922" y="696"/>
      <point x="815" y="766" type="curve"/>
      <point x="977" y="823"/>
      <point x="1126" y="940"/>
      <point x="1126" y="1151" type="curve" smooth="yes"/>
      <point x="1126" y="1331"/>
      <point x="993" y="1485"/>
      <point x="721" y="1485" type="curve" smooth="yes"/>
      <point x="406" y="1485"/>
      <point x="238" y="1300"/>
      <point x="238" y="1075" type="curve" smooth="yes"/>
      <point x="238" y="938"/>
      <point x="322" y="840"/>
      <point x="403" y="776" type="curve"/>
      <point x="180" y="694"/>
      <point x="55" y="559"/>
      <point x="55" y="350" type="curve" smooth="yes"/>
      <point x="55" y="139"/>
      <point x="209" y="-20"/>
    </contour>
    <contour>
      <point x="537" y="207" type="curve" smooth="yes"/>
      <point x="424" y="207"/>
      <point x="352" y="276"/>
      <point x="352" y="383" type="curve" smooth="yes"/>
      <point x="352" y="504"/>
      <point x="428" y="584"/>
      <point x="582" y="643" type="curve"/>
      <point x="674" y="584"/>
      <point x="739" y="512"/>
      <point x="739" y="399" type="curve" smooth="yes"/>
      <point x="739" y="301"/>
      <point x="676" y="207"/>
    </contour>
    <contour>
      <point x="651" y="893" type="curve"/>
      <point x="578" y="934"/>
      <point x="528" y="997"/>
      <point x="528" y="1094" type="curve" smooth="yes"/>
      <point x="528" y="1186"/>
      <point x="588" y="1260"/>
      <point x="694" y="1260" type="curve" smooth="yes"/>
      <point x="778" y="1260"/>
      <point x="836" y="1204"/>
      <point x="836" y="1114" type="curve" smooth="yes"/>
      <point x="836" y="1008"/>
      <point x="766" y="938"/>
    </contour>
  </outline>
</glyph>
<glyph name="equal" format="2">
  <advance width="1171"/>
  <unicode hex="003D"/>
  <outline>
    <contour>
      <point x="109" y="807" type="line"/>
      <point x="1102" y="807" type="line"/>
      <point x="1102" y="1024" type="line"/>
      <point x="109" y="1024" type="line"/>
    </contour>
    <contour>
      <point x="109" y="418" type="line"/>
      <point x="1102" y="418" type="line"/>
      <point x="1102" y="637" type="line"/>
      <point x="109" y="637" type="line"/>
    </contour>
  </outline>
</glyph>
<glyph name="A" format="2">
  <advance width="1286"/>
  <unicode hex="0041"/>
  <anchor x="524" y="0" name="bottom"/>
  <anchor x="836" y="1462" name="top"/>
  <anchor x="1438" y="1462" name="topright"/>
  <outline>
    <contour>
      <point x="-123" y="0" type="line"/>
      <point x="197" y="0" type="line"/>
      <point x="369" y="348" type="line"/>
      <point x="842" y="348" type="line"/>
      <point x="866" y="0" type="line"/>
      <point x="1163" y="0" type="line"/>
      <point x="1016" y="1462" type="line"/>
      <point x="643" y="1462" type="line"/>
    </contour>
    <contour>
      <point x="494" y="608" type="line"/>
      <point x="686" y="1004" type="line" smooth="yes"/>
      <point x="727" y="1087"/>
      <point x="760" y="1157"/>
      <point x="786" y="1231" type="curve"/>
      <point x="791" y="1231" type="line"/>
      <point x="788" y="1145"/>
      <point x="795" y="1065"/>
      <point x="801" y="985" type="curve" smooth="yes"/>
      <point x="827" y="608" type="line"/>
    </contour>
  </outline>
</glyph>
<glyph name="J" format="2">
  <advance width="678"/>
  <unicode hex="004A"/>
  <anchor x="-135" y="-430" name="bottom"/>
  <anchor x="537" y="1462" name="top"/>
  <anchor x="829" y="1462" name="topright"/>
  <outline>
    <contour>
      <point x="-135" y="-430" type="curve" smooth="yes"/>
      <point x="154" y="-430"/>
      <point x="315" y="-297"/>
      <point x="387" y="39" type="curve" smooth="yes"/>
      <point x="690" y="1462" type="line"/>
      <point x="385" y="1462" type="line"/>
      <point x="92" y="82" type="line" smooth="yes"/>
      <point x="55" y="-92"/>
      <point x="-27" y="-170"/>
      <point x="-158" y="-170" type="curve" smooth="yes"/>
      <point x="-223" y="-170"/>
      <point x="-276" y="-160"/>
      <point x="-322" y="-150" type="curve"/>
      <point x="-322" y="-403" type="line"/>
      <point x="-272" y="-418"/>
      <point x="-219" y="-430"/>
    </contour>
  </outline>
</glyph>
<glyph name="K" format="2">
  <advance width="1255"/>
  <unicode hex="004B"/>
  <anchor x="557" y="0" name="bottom"/>
  <anchor x="864" y="1462" name="top"/>
  <anchor x="1407" y="1462" name="topright"/>
  <outline>
    <contour>
      <point x="53" y="0" type="line"/>
      <point x="358" y="0" type="line"/>
      <point x="467" y="522" type="line"/>
      <point x="592" y="592" type="line"/>
      <point x="803" y="0" type="line"/>
      <point x="1141" y="0" type="line"/>
      <point x="850" y="762" type="line"/>
      <point x="1444" y="1462" type="line"/>
      <point x="1083" y="1462" type="line"/>
      <point x="670" y="965" type="line"/>
      <point x="514" y="756" type="line"/>
      <point x="668" y="1462" type="line"/>
      <point x="362" y="1462" type="line"/>
    </contour>
  </outline>
</glyph>
<glyph name="L" format="2">
  <advance width="1061"/>
  <unicode hex="004C"/>
  <anchor x="465" y="0" name="bottom"/>
  <anchor x="612" y="731" name="center"/>
  <anchor x="575" y="1462" name="top"/>
  <anchor x="1016" y="1462" name="topright"/>
  <outline>
    <contour>
      <point x="53" y="0" type="line"/>
      <point x="870" y="0" type="line"/>
      <point x="924" y="256" type="line"/>
      <point x="412" y="256" type="line"/>
      <point x="668" y="1462" type="line"/>
      <point x="362" y="1462" type="line"/>
    </contour>
  </outline>
</glyph>
<glyph name="k" format="2">
  <advance width="1163"/>
  <unicode hex="006B"/>
  <anchor x="506" y="0" name="bottom"/>
  <anchor x="514" y="1556" name="top"/>
  <anchor x="1333" y="1556" name="topright"/>
  <outline>
    <contour>
      <point x="37" y="0" type="line"/>
      <point x="338" y="0" type="line"/>
      <point x="412" y="348" type="line"/>
      <point x="532" y="420" type="line"/>
      <point x="715" y="0" type="line"/>
      <point x="1051" y="0" type="line"/>
      <point x="766" y="614" type="line"/>
      <point x="1264" y="1118" type="line"/>
      <point x="920" y="1118" type="line"/>
      <point x="467" y="643" type="line"/>
      <point x="459" y="643" type="line"/>
      <point x="471" y="688"/>
      <point x="506" y="795"/>
      <point x="520" y="862" type="curve" smooth="yes"/>
      <point x="668" y="1556" type="line"/>
      <point x="367" y="1556" type="line"/>
    </contour>
  </outline>
</glyph>
<glyph name="v" format="2">
  <advance width="1049"/>
  <unicode hex="0076"/>
  <anchor x="403" y="0" name="bottom"/>
  <anchor x="612" y="1118" name="top"/>
  <anchor x="1126" y="1118" name="topright"/>
  <outline>
    <contour>
      <point x="240" y="0" type="line"/>
      <point x="563" y="0" type="line"/>
      <point x="1167" y="1118" type="line"/>
      <point x="844" y="1118" type="line"/>
      <point x="547" y="524" type="line" smooth="yes"/>
      <point x="520" y="473"/>
      <point x="483" y="369"/>
      <point x="459" y="301" type="curve"/>
      <point x="449" y="301" type="line"/>
      <point x="449" y="375"/>
      <point x="446" y="481"/>
      <point x="442" y="532" type="curve" smooth="yes"/>
      <point x="397" y="1118" type="line"/>
      <point x="102" y="1118" type="line"/>
    </contour>
  </outline>
</glyph>
<glyph name="Oslash" format="2">
  <advance width="1495"/>
  <unicode hex="00D8"/>
  <anchor x="629" y="0" name="bottom"/>
  <anchor x="940" y="1462" name="top"/>
  <outline>
    <contour>
      <point x="254" y="-86" type="line"/>
      <point x="362" y="51" type="line"/>
      <point x="444" y="4"/>
      <point x="545" y="-20"/>
      <point x="666" y="-20" type="curve" smooth="yes"/>
      <point x="1200" y="-20"/>
      <point x="1432" y="461"/>
      <point x="1432" y="938" type="curve" smooth="yes"/>
      <point x="1432" y="1071"/>
      <point x="1403" y="1186"/>
      <point x="1341" y="1278" type="curve"/>
      <point x="1458" y="1423" type="line"/>
      <point x="1307" y="1540" type="line"/>
      <point x="1202" y="1409" type="line"/>
      <point x="1122" y="1458"/>
      <point x="1020" y="1485"/>
      <point x="897" y="1485" type="curve" smooth="yes"/>
      <point x="365" y="1485"/>
      <point x="123" y="993"/>
      <point x="123" y="537" type="curve" smooth="yes"/>
      <point x="123" y="395"/>
      <point x="156" y="272"/>
      <point x="221" y="180" type="curve"/>
      <point x="100" y="29" type="line"/>
    </contour>
    <contour>
      <point x="692" y="233" type="curve" smooth="yes"/>
      <point x="631" y="233"/>
      <point x="575" y="248"/>
      <point x="539" y="270" type="curve"/>
      <point x="1128" y="1010" type="line"/>
      <point x="1130" y="987"/>
      <point x="1133" y="952"/>
      <point x="1133" y="930" type="curve" smooth="yes"/>
      <point x="1133" y="510"/>
      <point x="940" y="233"/>
    </contour>
    <contour>
      <point x="432" y="436" type="line"/>
      <point x="428" y="471"/>
      <point x="424" y="506"/>
      <point x="424" y="537" type="curve" smooth="yes"/>
      <point x="424" y="911"/>
      <point x="600" y="1233"/>
      <point x="870" y="1233" type="curve" smooth="yes"/>
      <point x="936" y="1233"/>
      <point x="989" y="1214"/>
      <point x="1028" y="1190" type="curve"/>
    </contour>
  </outline>
</glyph>
<glyph name="lslash" format="2">
  <advance width="670"/>
  <unicode hex="0142"/>
  <anchor x="217" y="0" name="bottom"/>
  <anchor x="547" y="1556" name="top"/>
  <outline>
    <contour>
      <point x="63" y="0" type="line"/>
      <point x="360" y="0" type="line"/>
      <point x="498" y="645" type="line"/>
      <point x="729" y="770" type="line"/>
      <point x="623" y="973" type="line"/>
      <point x="559" y="936" type="line"/>
      <point x="690" y="1556" type="line"/>
      <point x="393" y="1556" type="line"/>
      <point x="223" y="758" type="line"/>
      <point x="0" y="637" type="line"/>
      <point x="102" y="434" type="line"/>
      <point x="162" y="467" type="line"/>
    </contour>
  </outline>
</glyph>
<glyph name="uni018B" format="2">
  <advance width="1212"/>
  <unicode hex="018B"/>
  <anchor x="487" y="0" name="bottom"/>
  <anchor x="799" y="1462" name="top"/>
  <outline>
    <contour>
      <point x="561" y="0" type="curve" smooth="yes"/>
      <point x="913" y="0" type="line"/>
      <point x="1223" y="1462" type="line"/>
      <point x="362" y="1462" type="line"/>
      <point x="309" y="1206" type="line"/>
      <point x="864" y="1206" type="line"/>
      <point x="801" y="901" type="line"/>
      <point x="700" y="901" type="line" smooth="yes"/>
      <point x="346" y="901"/>
      <point x="63" y="750"/>
      <point x="63" y="416" type="curve" smooth="yes"/>
      <point x="63" y="172"/>
      <point x="205" y="0"/>
    </contour>
    <contour>
      <point x="573" y="254" type="line" smooth="yes"/>
      <point x="444" y="254"/>
      <point x="371" y="313"/>
      <point x="371" y="426" type="curve" smooth="yes"/>
      <point x="371" y="569"/>
      <point x="502" y="647"/>
      <point x="676" y="647" type="curve" smooth="yes"/>
      <point x="745" y="647" type="line"/>
      <point x="662" y="254" type="line"/>
    </contour>
  </outline>
</glyph>
<glyph name="uni0193" format="2">
  <advance width="1413"/>
  <unicode hex="0193"/>
  <anchor x="588" y="0" name="bottom"/>
  <anchor x="899" y="1462" name="top"/>
  <outline>
    <contour>
      <point x="664" y="-20" type="curve" smooth="yes"/>
      <point x="887" y="-20"/>
      <point x="1022" y="14"/>
      <point x="1155" y="59" type="curve"/>
      <point x="1317" y="821" type="line"/>
      <point x="754" y="821" type="line"/>
      <point x="698" y="563" type="line"/>
      <point x="965" y="563" type="line"/>
      <point x="899" y="264" type="line"/>
      <point x="842" y="250"/>
      <point x="797" y="240"/>
      <point x="729" y="240" type="curve" smooth="yes"/>
      <point x="520" y="240"/>
      <point x="434" y="356"/>
      <point x="434" y="573" type="curve" smooth="yes"/>
      <point x="434" y="881"/>
      <point x="606" y="1223"/>
      <point x="965" y="1223" type="curve" smooth="yes"/>
      <point x="1081" y="1223"/>
      <point x="1192" y="1186"/>
      <point x="1319" y="1124" type="curve"/>
      <point x="1395" y="1419" type="line" smooth="yes"/>
      <point x="1419" y="1518"/>
      <point x="1458" y="1556"/>
      <point x="1518" y="1556" type="curve" smooth="yes"/>
      <point x="1561" y="1556"/>
      <point x="1591" y="1548"/>
      <point x="1622" y="1538" type="curve"/>
      <point x="1622" y="1772" type="line"/>
      <point x="1593" y="1784"/>
      <point x="1548" y="1800"/>
      <point x="1483" y="1800" type="curve" smooth="yes"/>
      <point x="1327" y="1800"/>
      <point x="1217" y="1718"/>
      <point x="1165" y="1499" type="curve" smooth="yes"/>
      <point x="1157" y="1464" type="line"/>
      <point x="1102" y="1477"/>
      <point x="1044" y="1485"/>
      <point x="979" y="1485" type="curve" smooth="yes"/>
      <point x="416" y="1485"/>
      <point x="123" y="1047"/>
      <point x="123" y="549" type="curve" smooth="yes"/>
      <point x="123" y="178"/>
      <point x="324" y="-20"/>
    </contour>
  </outline>
</glyph>
<glyph name="uni0195" format="2">
  <advance width="1874"/>
  <unicode hex="0195"/>
  <anchor x="819" y="0" name="bottom"/>
  <anchor x="1057" y="1118" name="top"/>
  <outline>
    <contour>
      <point x="1184" y="-20" type="curve" smooth="yes"/>
      <point x="1495" y="-20"/>
      <point x="1642" y="141"/>
      <point x="1714" y="485" type="curve" smooth="yes"/>
      <point x="1845" y="1118" type="line"/>
      <point x="1546" y="1118" type="line"/>
      <point x="1421" y="518" type="line" smooth="yes"/>
      <point x="1376" y="309"/>
      <point x="1319" y="225"/>
      <point x="1200" y="225" type="curve" smooth="yes"/>
      <point x="1108" y="225"/>
      <point x="1061" y="272"/>
      <point x="1061" y="365" type="curve" smooth="yes"/>
      <point x="1061" y="397"/>
      <point x="1067" y="434"/>
      <point x="1077" y="481" type="curve" smooth="yes"/>
      <point x="1122" y="709" type="line"/>
      <point x="1130" y="750"/>
      <point x="1135" y="788"/>
      <point x="1135" y="825" type="curve" smooth="yes"/>
      <point x="1135" y="1026"/>
      <point x="1014" y="1139"/>
      <point x="842" y="1139" type="curve" smooth="yes"/>
      <point x="717" y="1139"/>
      <point x="614" y="1085"/>
      <point x="530" y="969" type="curve"/>
      <point x="522" y="969" type="line"/>
      <point x="545" y="1032"/>
      <point x="582" y="1151"/>
      <point x="600" y="1239" type="curve" smooth="yes"/>
      <point x="668" y="1556" type="line"/>
      <point x="367" y="1556" type="line"/>
      <point x="37" y="0" type="line"/>
      <point x="338" y="0" type="line"/>
      <point x="442" y="489" type="line" smooth="yes"/>
      <point x="485" y="686"/>
      <point x="580" y="895"/>
      <point x="723" y="895" type="curve" smooth="yes"/>
      <point x="801" y="895"/>
      <point x="829" y="846"/>
      <point x="829" y="774" type="curve" smooth="yes"/>
      <point x="829" y="741"/>
      <point x="823" y="700"/>
      <point x="813" y="653" type="curve" smooth="yes"/>
      <point x="776" y="477" type="line" smooth="yes"/>
      <point x="766" y="426"/>
      <point x="756" y="367"/>
      <point x="756" y="322" type="curve" smooth="yes"/>
      <point x="756" y="98"/>
      <point x="909" y="-20"/>
    </contour>
  </outline>
</glyph>
<glyph name="uni0196" format="2">
  <advance width="784"/>
  <unicode hex="0196"/>
  <anchor x="274" y="0" name="bottom"/>
  <anchor x="586" y="1462" name="top"/>
  <outline>
    <contour>
      <point x="393" y="-20" type="curve" smooth="yes"/>
      <point x="504" y="-20"/>
      <point x="596" y="2"/>
      <point x="659" y="33" type="curve"/>
      <point x="659" y="258" type="line"/>
      <point x="598" y="236"/>
      <point x="559" y="223"/>
      <point x="504" y="223" type="curve" smooth="yes"/>
      <point x="451" y="223"/>
      <point x="416" y="246"/>
      <point x="416" y="295" type="curve" smooth="yes"/>
      <point x="416" y="311"/>
      <point x="420" y="338"/>
      <point x="428" y="377" type="curve" smooth="yes"/>
      <point x="657" y="1462" type="line"/>
      <point x="352" y="1462" type="line"/>
      <point x="125" y="395" type="line" smooth="yes"/>
      <point x="106" y="309"/>
      <point x="102" y="270"/>
      <point x="102" y="238" type="curve" smooth="yes"/>
      <point x="102" y="43"/>
      <point x="217" y="-20"/>
    </contour>
  </outline>
</glyph>
<glyph name="uni019C" format="2">
  <advance width="2036"/>
  <unicode hex="019C"/>
  <anchor x="899" y="0" name="bottom"/>
  <anchor x="1210" y="1462" name="top"/>
  <outline>
    <contour>
      <point x="455" y="-20" type="curve" smooth="yes"/>
      <point x="610" y="-20"/>
      <point x="737" y="47"/>
      <point x="834" y="164" type="curve"/>
      <point x="846" y="164" type="line"/>
      <point x="895" y="49"/>
      <point x="989" y="-20"/>
      <point x="1133" y="-20" type="curve" smooth="yes"/>
      <point x="1272" y="-20"/>
      <point x="1401" y="39"/>
      <point x="1493" y="156" type="curve"/>
      <point x="1509" y="156" type="line"/>
      <point x="1509" y="0" type="line"/>
      <point x="1737" y="0" type="line"/>
      <point x="2046" y="1462" type="line"/>
      <point x="1743" y="1462" type="line"/>
      <point x="1563" y="614" type="line" smooth="yes"/>
      <point x="1520" y="416"/>
      <point x="1448" y="240"/>
      <point x="1276" y="240" type="curve" smooth="yes"/>
      <point x="1178" y="240"/>
      <point x="1133" y="289"/>
      <point x="1133" y="385" type="curve" smooth="yes"/>
      <point x="1133" y="414"/>
      <point x="1137" y="449"/>
      <point x="1145" y="485" type="curve" smooth="yes"/>
      <point x="1352" y="1462" type="line"/>
      <point x="1047" y="1462" type="line"/>
      <point x="860" y="580" type="line"/>
      <point x="821" y="399"/>
      <point x="741" y="240"/>
      <point x="575" y="240" type="curve" smooth="yes"/>
      <point x="479" y="240"/>
      <point x="438" y="289"/>
      <point x="438" y="381" type="curve" smooth="yes"/>
      <point x="438" y="412"/>
      <point x="442" y="446"/>
      <point x="451" y="485" type="curve" smooth="yes"/>
      <point x="657" y="1462" type="line"/>
      <point x="352" y="1462" type="line"/>
      <point x="135" y="440" type="line" smooth="yes"/>
      <point x="125" y="395"/>
      <point x="121" y="356"/>
      <point x="121" y="317" type="curve" smooth="yes"/>
      <point x="121" y="102"/>
      <point x="260" y="-20"/>
    </contour>
  </outline>
</glyph>
<glyph name="uni019D" format="2">
  <advance width="1546"/>
  <unicode hex="019D"/>
  <anchor x="551" y="-492" name="bottom"/>
  <anchor x="967" y="1462" name="top"/>
  <outline>
    <contour>
      <point x="-43" y="-492" type="curve" smooth="yes"/>
      <point x="145" y="-492"/>
      <point x="244" y="-399"/>
      <point x="301" y="-131" type="curve" smooth="yes"/>
      <point x="473" y="688" type="line" smooth="yes"/>
      <point x="502" y="827"/>
      <point x="535" y="1075"/>
      <point x="539" y="1106" type="curve"/>
      <point x="549" y="1106" type="line"/>
      <point x="905" y="0" type="line"/>
      <point x="1247" y="0" type="line"/>
      <point x="1556" y="1462" type="line"/>
      <point x="1282" y="1462" type="line"/>
      <point x="1135" y="770" type="line" smooth="yes"/>
      <point x="1110" y="653"/>
      <point x="1081" y="471"/>
      <point x="1067" y="385" type="curve"/>
      <point x="1059" y="385" type="line"/>
      <point x="719" y="1462" type="line"/>
      <point x="362" y="1462" type="line"/>
      <point x="27" y="-125" type="line" smooth="yes"/>
      <point x="10" y="-207"/>
      <point x="-39" y="-248"/>
      <point x="-102" y="-248" type="curve" smooth="yes"/>
      <point x="-147" y="-248"/>
      <point x="-188" y="-236"/>
      <point x="-205" y="-229" type="curve"/>
      <point x="-205" y="-463" type="line"/>
      <point x="-166" y="-477"/>
      <point x="-104" y="-492"/>
    </contour>
  </outline>
</glyph>
<glyph name="uni0235" format="2">
  <advance width="1489"/>
  <unicode hex="0235"/>
  <anchor x="627" y="0" name="bottom"/>
  <anchor x="864" y="1118" name="top"/>
  <outline>
    <contour>
      <point x="713" y="-111" type="line"/>
      <point x="748" y="-43"/>
      <point x="791" y="14"/>
      <point x="823" y="53" type="curve"/>
      <point x="877" y="10"/>
      <point x="981" y="-20"/>
      <point x="1092" y="-20" type="curve" smooth="yes"/>
      <point x="1309" y="-20"/>
      <point x="1460" y="72"/>
      <point x="1460" y="272" type="curve" smooth="yes"/>
      <point x="1460" y="422"/>
      <point x="1360" y="496"/>
      <point x="1217" y="496" type="curve" smooth="yes"/>
      <point x="1161" y="496"/>
      <point x="1112" y="483"/>
      <point x="1073" y="467" type="curve"/>
      <point x="1110" y="637" type="line" smooth="yes"/>
      <point x="1124" y="705"/>
      <point x="1133" y="768"/>
      <point x="1133" y="817" type="curve" smooth="yes"/>
      <point x="1133" y="1014"/>
      <point x="1036" y="1139"/>
      <point x="844" y="1139" type="curve" smooth="yes"/>
      <point x="688" y="1139"/>
      <point x="578" y="1044"/>
      <point x="492" y="911" type="curve"/>
      <point x="483" y="911" type="line"/>
      <point x="504" y="1118" type="line"/>
      <point x="274" y="1118" type="line"/>
      <point x="37" y="0" type="line"/>
      <point x="338" y="0" type="line"/>
      <point x="436" y="463" type="line" smooth="yes"/>
      <point x="487" y="700"/>
      <point x="584" y="895"/>
      <point x="721" y="895" type="curve" smooth="yes"/>
      <point x="793" y="895"/>
      <point x="829" y="856"/>
      <point x="829" y="772" type="curve" smooth="yes"/>
      <point x="829" y="739"/>
      <point x="823" y="698"/>
      <point x="813" y="653" type="curve" smooth="yes"/>
      <point x="758" y="395" type="line" smooth="yes"/>
      <point x="748" y="340"/>
      <point x="729" y="242"/>
      <point x="741" y="195" type="curve"/>
      <point x="698" y="143"/>
      <point x="637" y="66"/>
      <point x="582" y="-37" type="curve"/>
    </contour>
    <contour>
      <point x="1126" y="162" type="curve" smooth="yes"/>
      <point x="1055" y="162"/>
      <point x="1032" y="205"/>
      <point x="1032" y="270" type="curve"/>
      <point x="1065" y="309"/>
      <point x="1106" y="326"/>
      <point x="1155" y="326" type="curve" smooth="yes"/>
      <point x="1206" y="326"/>
      <point x="1241" y="299"/>
      <point x="1241" y="250" type="curve" smooth="yes"/>
      <point x="1241" y="197"/>
      <point x="1188" y="162"/>
    </contour>
  </outline>
</glyph>
<glyph name="uni023E" format="2">
  <advance width="1087"/>
  <unicode hex="023E"/>
  <anchor x="426" y="0" name="bottom"/>
  <anchor x="737" y="1462" name="top"/>
  <outline>
    <contour>
      <point x="-98" y="-90" type="line"/>
      <point x="121" y="-90" type="line"/>
      <point x="1262" y="1620" type="line"/>
      <point x="1047" y="1620" type="line"/>
    </contour>
    <component base="T"/>
  </outline>
</glyph>
<glyph name="uni0254" format="2">
  <advance width="989"/>
  <unicode hex="0254"/>
  <anchor x="377" y="0" name="bottom"/>
  <anchor x="614" y="1118" name="top"/>
  <outline>
    <contour>
      <point x="307" y="-20" type="curve" smooth="yes"/>
      <point x="686" y="-20"/>
      <point x="899" y="326"/>
      <point x="899" y="727" type="curve" smooth="yes"/>
      <point x="899" y="1022"/>
      <point x="715" y="1139"/>
      <point x="483" y="1139" type="curve" smooth="yes"/>
      <point x="344" y="1139"/>
      <point x="242" y="1108"/>
      <point x="147" y="1059" type="curve"/>
      <point x="147" y="813" type="line"/>
      <point x="240" y="860"/>
      <point x="322" y="895"/>
      <point x="422" y="895" type="curve" smooth="yes"/>
      <point x="530" y="895"/>
      <point x="594" y="829"/>
      <point x="594" y="702" type="curve" smooth="yes"/>
      <point x="594" y="467"/>
      <point x="485" y="223"/>
      <point x="295" y="223" type="curve" smooth="yes"/>
      <point x="207" y="223"/>
      <point x="143" y="250"/>
      <point x="72" y="281" type="curve"/>
      <point x="-20" y="51" type="line"/>
      <point x="72" y="6"/>
      <point x="174" y="-20"/>
    </contour>
  </outline>
</glyph>
<glyph name="uni0255" format="2">
  <advance width="1024"/>
  <unicode hex="0255"/>
  <anchor x="393" y="0" name="bottom"/>
  <anchor x="631" y="1118" name="top"/>
  <outline>
    <contour>
      <point x="123" y="-109" type="line"/>
      <point x="162" y="-41"/>
      <point x="190" y="2"/>
      <point x="231" y="59" type="curve"/>
      <point x="295" y="6"/>
      <point x="399" y="-20"/>
      <point x="535" y="-20" type="curve" smooth="yes"/>
      <point x="731" y="-20"/>
      <point x="967" y="76"/>
      <point x="967" y="334" type="curve" smooth="yes"/>
      <point x="967" y="477"/>
      <point x="870" y="586"/>
      <point x="694" y="586" type="curve" smooth="yes"/>
      <point x="569" y="586"/>
      <point x="475" y="543"/>
      <point x="389" y="473" type="curve"/>
      <point x="391" y="492"/>
      <point x="393" y="510"/>
      <point x="395" y="528" type="curve" smooth="yes"/>
      <point x="426" y="727"/>
      <point x="541" y="895"/>
      <point x="694" y="895" type="curve" smooth="yes"/>
      <point x="782" y="895"/>
      <point x="846" y="868"/>
      <point x="918" y="838" type="curve"/>
      <point x="1010" y="1067" type="line"/>
      <point x="918" y="1112"/>
      <point x="815" y="1139"/>
      <point x="682" y="1139" type="curve" smooth="yes"/>
      <point x="303" y="1139"/>
      <point x="90" y="793"/>
      <point x="90" y="391" type="curve" smooth="yes"/>
      <point x="90" y="305"/>
      <point x="106" y="233"/>
      <point x="133" y="178" type="curve"/>
      <point x="82" y="109"/>
      <point x="39" y="41"/>
      <point x="-6" y="-33" type="curve"/>
    </contour>
    <contour>
      <point x="582" y="203" type="curve" smooth="yes"/>
      <point x="494" y="203"/>
      <point x="434" y="236"/>
      <point x="408" y="293" type="curve"/>
      <point x="463" y="344"/>
      <point x="553" y="403"/>
      <point x="655" y="403" type="curve" smooth="yes"/>
      <point x="727" y="403"/>
      <point x="762" y="369"/>
      <point x="762" y="322" type="curve" smooth="yes"/>
      <point x="762" y="236"/>
      <point x="666" y="203"/>
    </contour>
  </outline>
</glyph>
<glyph name="uni0262" format="2">
  <advance width="1206"/>
  <unicode hex="0262"/>
  <anchor x="485" y="0" name="bottom"/>
  <anchor x="723" y="1118" name="top"/>
  <anchor x="1063" y="1118" name="topright"/>
  <outline>
    <contour>
      <point x="590" y="-20" type="curve" smooth="yes"/>
      <point x="752" y="-20"/>
      <point x="870" y="12"/>
      <point x="987" y="68" type="curve"/>
      <point x="1106" y="633" type="line"/>
      <point x="608" y="633" type="line"/>
      <point x="565" y="430" type="line"/>
      <point x="774" y="430" type="line"/>
      <point x="735" y="242" type="line"/>
      <point x="698" y="231"/>
      <point x="659" y="223"/>
      <point x="618" y="223" type="curve" smooth="yes"/>
      <point x="473" y="223"/>
      <point x="395" y="307"/>
      <point x="395" y="479" type="curve" smooth="yes"/>
      <point x="395" y="682"/>
      <point x="477" y="895"/>
      <point x="743" y="895" type="curve" smooth="yes"/>
      <point x="850" y="895"/>
      <point x="958" y="866"/>
      <point x="1038" y="829" type="curve"/>
      <point x="1133" y="1059" type="line"/>
      <point x="1030" y="1108"/>
      <point x="891" y="1139"/>
      <point x="760" y="1139" type="curve" smooth="yes"/>
      <point x="264" y="1139"/>
      <point x="90" y="811"/>
      <point x="90" y="461" type="curve" smooth="yes"/>
      <point x="90" y="152"/>
      <point x="268" y="-20"/>
    </contour>
  </outline>
</glyph>
<glyph name="uni0263" format="2">
  <advance width="1049"/>
  <unicode hex="0263"/>
  <anchor x="301" y="-492" name="bottom"/>
  <anchor x="643" y="1118" name="top"/>
  <outline>
    <contour>
      <point x="301" y="-492" type="curve" smooth="yes"/>
      <point x="514" y="-492"/>
      <point x="627" y="-356"/>
      <point x="627" y="-131" type="curve" smooth="yes"/>
      <point x="627" y="-33"/>
      <point x="606" y="82"/>
      <point x="580" y="193" type="curve"/>
      <point x="1178" y="1118" type="line"/>
      <point x="856" y="1118" type="line"/>
      <point x="580" y="655" type="line" smooth="yes"/>
      <point x="532" y="578"/>
      <point x="496" y="496"/>
      <point x="475" y="428" type="curve"/>
      <point x="469" y="428" type="line"/>
      <point x="469" y="516"/>
      <point x="461" y="594"/>
      <point x="446" y="664" type="curve" smooth="yes"/>
      <point x="358" y="1118" type="line"/>
      <point x="70" y="1118" type="line"/>
      <point x="276" y="236" type="line"/>
      <point x="172" y="90"/>
      <point x="53" y="-78"/>
      <point x="53" y="-248" type="curve" smooth="yes"/>
      <point x="53" y="-389"/>
      <point x="141" y="-492"/>
    </contour>
    <contour>
      <point x="319" y="-309" type="curve" smooth="yes"/>
      <point x="287" y="-309"/>
      <point x="266" y="-287"/>
      <point x="266" y="-244" type="curve" smooth="yes"/>
      <point x="266" y="-195"/>
      <point x="299" y="-80"/>
      <point x="391" y="45" type="curve"/>
      <point x="406" y="-12"/>
      <point x="414" y="-72"/>
      <point x="414" y="-121" type="curve" smooth="yes"/>
      <point x="414" y="-201"/>
      <point x="389" y="-309"/>
    </contour>
  </outline>
</glyph>
<glyph name="uni0276" format="2">
  <advance width="1694"/>
  <unicode hex="0276"/>
  <anchor x="729" y="0" name="bottom"/>
  <anchor x="967" y="1118" name="top"/>
  <outline>
    <contour>
      <point x="514" y="-16" type="curve" smooth="yes"/>
      <point x="569" y="-16"/>
      <point x="631" y="-2"/>
      <point x="680" y="20" type="curve"/>
      <point x="676" y="0" type="line"/>
      <point x="1452" y="0" type="line"/>
      <point x="1501" y="233" type="line"/>
      <point x="1026" y="233" type="line"/>
      <point x="1075" y="463" type="line"/>
      <point x="1520" y="463" type="line"/>
      <point x="1567" y="692" type="line"/>
      <point x="1122" y="692" type="line"/>
      <point x="1165" y="889" type="line"/>
      <point x="1640" y="889" type="line"/>
      <point x="1690" y="1118" type="line"/>
      <point x="913" y="1118" type="line"/>
      <point x="901" y="1061" type="line"/>
      <point x="844" y="1110"/>
      <point x="766" y="1139"/>
      <point x="678" y="1139" type="curve" smooth="yes"/>
      <point x="287" y="1139"/>
      <point x="90" y="805"/>
      <point x="90" y="410" type="curve" smooth="yes"/>
      <point x="90" y="147"/>
      <point x="256" y="-16"/>
    </contour>
    <contour>
      <point x="543" y="229" type="curve" smooth="yes"/>
      <point x="442" y="229"/>
      <point x="393" y="293"/>
      <point x="393" y="410" type="curve" smooth="yes"/>
      <point x="393" y="612"/>
      <point x="479" y="893"/>
      <point x="662" y="893" type="curve" smooth="yes"/>
      <point x="768" y="893"/>
      <point x="805" y="809"/>
      <point x="805" y="696" type="curve" smooth="yes"/>
      <point x="805" y="455"/>
      <point x="709" y="229"/>
    </contour>
  </outline>
</glyph>
<glyph name="ezhcurl" format="2">
  <advance width="1120"/>
  <unicode hex="0293"/>
  <anchor x="332" y="-518" name="bottom"/>
  <anchor x="680" y="1118" name="top"/>
  <outline>
    <contour>
      <point x="242" y="-492" type="curve" smooth="yes"/>
      <point x="387" y="-492"/>
      <point x="496" y="-457"/>
      <point x="590" y="-408" type="curve"/>
      <point x="629" y="-459"/>
      <point x="649" y="-494"/>
      <point x="664" y="-518" type="curve"/>
      <point x="825" y="-408" type="line"/>
      <point x="801" y="-371"/>
      <point x="774" y="-336"/>
      <point x="750" y="-299" type="curve"/>
      <point x="862" y="-195"/>
      <point x="915" y="-55"/>
      <point x="915" y="117" type="curve" smooth="yes"/>
      <point x="915" y="328"/>
      <point x="764" y="485"/>
      <point x="547" y="512" type="curve"/>
      <point x="1028" y="922" type="line"/>
      <point x="1069" y="1118" type="line"/>
      <point x="215" y="1118" type="line"/>
      <point x="166" y="885" type="line"/>
      <point x="651" y="885" type="line"/>
      <point x="252" y="539" type="line"/>
      <point x="207" y="324" type="line"/>
      <point x="322" y="324" type="line" smooth="yes"/>
      <point x="502" y="324"/>
      <point x="604" y="227"/>
      <point x="604" y="88" type="curve" smooth="yes"/>
      <point x="604" y="23"/>
      <point x="596" y="-18"/>
      <point x="569" y="-72" type="curve"/>
      <point x="475" y="31"/>
      <point x="365" y="115"/>
      <point x="188" y="115" type="curve" smooth="yes"/>
      <point x="2" y="115"/>
      <point x="-156" y="14"/>
      <point x="-156" y="-190" type="curve" smooth="yes"/>
      <point x="-156" y="-391"/>
      <point x="6" y="-492"/>
    </contour>
    <contour>
      <point x="199" y="-268" type="curve" smooth="yes"/>
      <point x="113" y="-268"/>
      <point x="57" y="-233"/>
      <point x="57" y="-172" type="curve" smooth="yes"/>
      <point x="57" y="-104"/>
      <point x="102" y="-68"/>
      <point x="180" y="-68" type="curve" smooth="yes"/>
      <point x="279" y="-68"/>
      <point x="354" y="-123"/>
      <point x="426" y="-211" type="curve"/>
      <point x="369" y="-244"/>
      <point x="274" y="-268"/>
    </contour>
  </outline>
</glyph>
<glyph name="glottalturned" format="2">
  <advance width="981"/>
  <unicode hex="0296"/>
  <anchor x="373" y="0" name="bottom"/>
  <anchor x="702" y="1556" name="top"/>
  <outline>
    <contour>
      <point x="352" y="-20" type="curve" smooth="yes"/>
      <point x="668" y="-20"/>
      <point x="889" y="160"/>
      <point x="889" y="483" type="curve" smooth="yes"/>
      <point x="889" y="676"/>
      <point x="803" y="815"/>
      <point x="625" y="928" type="curve"/>
      <point x="758" y="1556" type="line"/>
      <point x="457" y="1556" type="line"/>
      <point x="297" y="801" type="line"/>
      <point x="510" y="719"/>
      <point x="590" y="596"/>
      <point x="590" y="471" type="curve" smooth="yes"/>
      <point x="590" y="322"/>
      <point x="481" y="225"/>
      <point x="352" y="225" type="curve" smooth="yes"/>
      <point x="242" y="225"/>
      <point x="145" y="281"/>
      <point x="82" y="324" type="curve"/>
      <point x="-55" y="106" type="line"/>
      <point x="57" y="29"/>
      <point x="176" y="-20"/>
    </contour>
  </outline>
</glyph>
<glyph name="uni029F" format="2">
  <advance width="940"/>
  <unicode hex="029F"/>
  <anchor x="352" y="0" name="bottom"/>
  <anchor x="590" y="1118" name="top"/>
  <outline>
    <contour>
      <point x="37" y="0" type="line"/>
      <point x="774" y="0" type="line"/>
      <point x="823" y="233" type="line"/>
      <point x="387" y="233" type="line"/>
      <point x="575" y="1118" type="line"/>
      <point x="274" y="1118" type="line"/>
    </contour>
  </outline>
</glyph>
<glyph name="uni02AF" format="2">
  <advance width="1247"/>
  <unicode hex="02AF"/>
  <anchor x="401" y="-492" name="bottom"/>
  <anchor x="743" y="1118" name="top"/>
  <outline>
    <contour>
      <point x="942" y="-492" type="curve" smooth="yes"/>
      <point x="1010" y="-492"/>
      <point x="1081" y="-479"/>
      <point x="1126" y="-461" type="curve"/>
      <point x="1126" y="-229" type="line"/>
      <point x="1092" y="-242"/>
      <point x="1061" y="-248"/>
      <point x="1022" y="-248" type="curve" smooth="yes"/>
      <point x="969" y="-248"/>
      <point x="942" y="-227"/>
      <point x="942" y="-176" type="curve" smooth="yes"/>
      <point x="942" y="-160"/>
      <point x="946" y="-125"/>
      <point x="952" y="-98" type="curve" smooth="yes"/>
      <point x="1212" y="1118" type="line"/>
      <point x="911" y="1118" type="line"/>
      <point x="813" y="655" type="line" smooth="yes"/>
      <point x="762" y="418"/>
      <point x="666" y="223"/>
      <point x="528" y="223" type="curve" smooth="yes"/>
      <point x="457" y="223"/>
      <point x="420" y="262"/>
      <point x="420" y="346" type="curve" smooth="yes"/>
      <point x="420" y="379"/>
      <point x="426" y="420"/>
      <point x="436" y="465" type="curve" smooth="yes"/>
      <point x="489" y="717" type="line" smooth="yes"/>
      <point x="500" y="766"/>
      <point x="504" y="811"/>
      <point x="504" y="850" type="curve" smooth="yes"/>
      <point x="504" y="1034"/>
      <point x="395" y="1143"/>
      <point x="225" y="1143" type="curve" smooth="yes"/>
      <point x="139" y="1143"/>
      <point x="84" y="1128"/>
      <point x="18" y="1106" type="curve"/>
      <point x="18" y="862" type="line"/>
      <point x="49" y="874"/>
      <point x="80" y="883"/>
      <point x="115" y="883" type="curve" smooth="yes"/>
      <point x="168" y="883"/>
      <point x="195" y="842"/>
      <point x="195" y="778" type="curve" smooth="yes"/>
      <point x="195" y="760"/>
      <point x="193" y="739"/>
      <point x="188" y="719" type="curve" smooth="yes"/>
      <point x="143" y="502" type="line"/>
      <point x="127" y="422"/>
      <point x="121" y="350"/>
      <point x="121" y="301" type="curve" smooth="yes"/>
      <point x="121" y="104"/>
      <point x="213" y="-20"/>
      <point x="406" y="-20" type="curve" smooth="yes"/>
      <point x="537" y="-20"/>
      <point x="629" y="39"/>
      <point x="717" y="150" type="curve"/>
      <point x="725" y="150" type="line"/>
      <point x="702" y="84"/>
      <point x="678" y="8"/>
      <point x="664" y="-53" type="curve" smooth="yes"/>
      <point x="647" y="-125" type="line" smooth="yes"/>
      <point x="639" y="-162"/>
      <point x="635" y="-197"/>
      <point x="635" y="-229" type="curve" smooth="yes"/>
      <point x="635" y="-393"/>
      <point x="750" y="-492"/>
    </contour>
  </outline>
</glyph>
<glyph name="uni02F0" format="2">
  <advance width="846"/>
  <unicode hex="02F0"/>
  <outline>
    <contour>
      <point x="-141" y="-492" type="line"/>
      <point x="27" y="-492" type="line"/>
      <point x="270" y="-221" type="line"/>
      <point x="387" y="-492" type="line"/>
      <point x="541" y="-492" type="line"/>
      <point x="344" y="-41" type="line"/>
      <point x="246" y="-41" type="line"/>
    </contour>
  </outline>
</glyph>
<glyph name="commaaccentcomb" format="2">
  <unicode hex="0326"/>
  <anchor x="387" y="0" name="_bottom"/>
  <anchor x="332" y="-453" name="bottom"/>
  <outline>
    <contour>
      <point x="123" y="-453" type="line"/>
      <point x="303" y="-453" type="line"/>
      <point x="393" y="-352"/>
      <point x="481" y="-236"/>
      <point x="530" y="-145" type="curve"/>
      <point x="530" y="-125" type="line"/>
      <point x="248" y="-125" type="line"/>
      <point x="219" y="-213"/>
      <point x="162" y="-346"/>
      <point x="123" y="-426" type="curve"/>
    </contour>
  </outline>
</glyph>
<glyph name="slashshortoverlaycomb" format="2">
  <unicode hex="0337"/>
  <anchor x="2" y="573" name="_center"/>
  <outline>
    <contour>
      <point x="-250" y="299" type="line"/>
      <point x="360" y="668" type="line"/>
      <point x="254" y="848" type="line"/>
      <point x="-358" y="481" type="line"/>
    </contour>
  </outline>
</glyph>
<glyph name="seagullbelowcomb" format="2">
  <unicode hex="033C"/>
  <anchor x="-102" y="0" name="_bottom"/>
  <anchor x="-150" y="-362" name="bottom"/>
  <outline>
    <contour>
      <point x="-545" y="-362" type="curve"/>
      <point x="-434" y="-362" type="line"/>
      <point x="-416" y="-270"/>
      <point x="-358" y="-227"/>
      <point x="-291" y="-227" type="curve" smooth="yes"/>
      <point x="-217" y="-227"/>
      <point x="-186" y="-270"/>
      <point x="-205" y="-362" type="curve"/>
      <point x="-106" y="-362" type="line"/>
      <point x="-88" y="-270"/>
      <point x="-33" y="-227"/>
      <point x="35" y="-227" type="curve" smooth="yes"/>
      <point x="109" y="-227"/>
      <point x="137" y="-270"/>
      <point x="119" y="-362" type="curve"/>
      <point x="229" y="-362" type="line"/>
      <point x="236" y="-338"/>
      <point x="238" y="-313"/>
      <point x="238" y="-293" type="curve" smooth="yes"/>
      <point x="238" y="-182"/>
      <point x="168" y="-125"/>
      <point x="57" y="-125" type="curve" smooth="yes"/>
      <point x="-16" y="-125"/>
      <point x="-78" y="-150"/>
      <point x="-121" y="-197" type="curve"/>
      <point x="-145" y="-150"/>
      <point x="-193" y="-125"/>
      <point x="-268" y="-125" type="curve" smooth="yes"/>
      <point x="-399" y="-125"/>
      <point x="-512" y="-203"/>
    </contour>
  </outline>
</glyph>
<glyph name="xabovecomb" format="2">
  <unicode hex="033D"/>
  <anchor x="135" y="1118" name="_top"/>
  <anchor x="195" y="1587" name="top"/>
  <outline>
    <contour>
      <point x="23" y="1169" type="line"/>
      <point x="170" y="1290" type="line"/>
      <point x="266" y="1169" type="line"/>
      <point x="373" y="1255" type="line"/>
      <point x="276" y="1378" type="line"/>
      <point x="424" y="1499" type="line"/>
      <point x="354" y="1587" type="line"/>
      <point x="207" y="1464" type="line"/>
      <point x="111" y="1587" type="line"/>
      <point x="6" y="1499" type="line"/>
      <point x="102" y="1378" type="line"/>
      <point x="-45" y="1255" type="line"/>
    </contour>
  </outline>
</glyph>
<glyph name="arrowdoublerightbelowcomb" format="2">
  <unicode hex="0362"/>
  <anchor x="453" y="0" name="_bottom"/>
  <anchor x="401" y="-469" name="bottom"/>
  <outline>
    <contour>
      <point x="918" y="-469" type="line"/>
      <point x="1200" y="-260" type="line"/>
      <point x="918" y="-51" type="line"/>
      <point x="918" y="-190" type="line"/>
      <point x="-375" y="-190" type="line"/>
      <point x="-406" y="-330" type="line"/>
      <point x="918" y="-330" type="line"/>
    </contour>
  </outline>
</glyph>
<glyph name="Archaicsampi" format="2">
  <advance width="1341"/>
  <unicode hex="0372"/>
  <anchor x="553" y="0" name="bottom"/>
  <anchor x="864" y="1462" name="top"/>
  <outline>
    <contour>
      <point x="403" y="0" type="line"/>
      <point x="709" y="0" type="line"/>
      <point x="963" y="1204" type="line"/>
      <point x="1315" y="1204" type="line"/>
      <point x="1370" y="1462" type="line"/>
      <point x="360" y="1462" type="line"/>
      <point x="305" y="1204" type="line"/>
      <point x="657" y="1204" type="line"/>
    </contour>
    <contour>
      <point x="154" y="844" type="line"/>
      <point x="410" y="844" type="line"/>
      <point x="541" y="1462" type="line"/>
      <point x="285" y="1462" type="line"/>
    </contour>
    <contour>
      <point x="1055" y="844" type="line"/>
      <point x="1311" y="844" type="line"/>
      <point x="1442" y="1462" type="line"/>
      <point x="1186" y="1462" type="line"/>
    </contour>
  </outline>
</glyph>
<glyph name="uni0375" format="2">
  <advance width="477"/>
  <unicode hex="0375"/>
  <outline>
    <contour>
      <point x="-147" y="-451" type="line"/>
      <point x="135" y="-451" type="line"/>
      <point x="164" y="-362"/>
      <point x="221" y="-229"/>
      <point x="260" y="-150" type="curve"/>
      <point x="260" y="-123" type="line"/>
      <point x="80" y="-123" type="line"/>
      <point x="-10" y="-223"/>
      <point x="-98" y="-340"/>
      <point x="-147" y="-430" type="curve"/>
    </contour>
  </outline>
</glyph>
<glyph name="epsilon" format="2">
  <advance width="1051"/>
  <unicode hex="03B5"/>
  <anchor x="408" y="0" name="bottom"/>
  <anchor x="686" y="1118" name="top"/>
  <outline>
    <contour>
      <point x="483" y="-20" type="curve" smooth="yes"/>
      <point x="662" y="-20"/>
      <point x="786" y="10"/>
      <point x="885" y="59" type="curve"/>
      <point x="885" y="305" type="line"/>
      <point x="795" y="258"/>
      <point x="690" y="215"/>
      <point x="532" y="215" type="curve" smooth="yes"/>
      <point x="418" y="215"/>
      <point x="356" y="258"/>
      <point x="356" y="332" type="curve" smooth="yes"/>
      <point x="356" y="426"/>
      <point x="459" y="477"/>
      <point x="614" y="477" type="curve" smooth="yes"/>
      <point x="762" y="477" type="line"/>
      <point x="807" y="688" type="line"/>
      <point x="672" y="688" type="line" smooth="yes"/>
      <point x="539" y="688"/>
      <point x="475" y="719"/>
      <point x="475" y="788" type="curve" smooth="yes"/>
      <point x="475" y="877"/>
      <point x="561" y="913"/>
      <point x="676" y="913" type="curve" smooth="yes"/>
      <point x="795" y="913"/>
      <point x="883" y="879"/>
      <point x="979" y="831" type="curve"/>
      <point x="1071" y="1053" type="line"/>
      <point x="969" y="1108"/>
      <point x="840" y="1139"/>
      <point x="668" y="1139" type="curve" smooth="yes"/>
      <point x="424" y="1139"/>
      <point x="201" y="1051"/>
      <point x="201" y="807" type="curve" smooth="yes"/>
      <point x="201" y="700"/>
      <point x="276" y="627"/>
      <point x="367" y="592" type="curve"/>
      <point x="367" y="584" type="line"/>
      <point x="170" y="551"/>
      <point x="39" y="465"/>
      <point x="39" y="274" type="curve" smooth="yes"/>
      <point x="39" y="82"/>
      <point x="219" y="-20"/>
    </contour>
  </outline>
</glyph>
<glyph name="nu" format="2">
  <advance width="1126"/>
  <unicode hex="03BD"/>
  <anchor x="444" y="0" name="bottom"/>
  <anchor x="682" y="1118" name="top"/>
  <outline>
    <contour>
      <point x="242" y="0" type="line"/>
      <point x="539" y="0" type="line"/>
      <point x="903" y="328"/>
      <point x="1069" y="694"/>
      <point x="1145" y="1118" type="curve"/>
      <point x="838" y="1118" type="line"/>
      <point x="756" y="733"/>
      <point x="647" y="483"/>
      <point x="469" y="272" type="curve"/>
      <point x="469" y="332"/>
      <point x="467" y="426"/>
      <point x="459" y="502" type="curve" smooth="yes"/>
      <point x="397" y="1118" type="line"/>
      <point x="102" y="1118" type="line"/>
    </contour>
  </outline>
</glyph>
<glyph name="uni03DA" format="2">
  <advance width="1229"/>
  <unicode hex="03DA"/>
  <anchor x="496" y="0" name="bottom"/>
  <anchor x="807" y="1462" name="top"/>
  <outline>
    <contour>
      <point x="512" y="0" type="line"/>
      <point x="817" y="0" type="line"/>
      <point x="928" y="522" type="line"/>
      <point x="834" y="522" type="line" smooth="yes"/>
      <point x="596" y="522"/>
      <point x="475" y="616"/>
      <point x="475" y="788" type="curve" smooth="yes"/>
      <point x="475" y="1032"/>
      <point x="637" y="1227"/>
      <point x="893" y="1227" type="curve" smooth="yes"/>
      <point x="1006" y="1227"/>
      <point x="1106" y="1180"/>
      <point x="1192" y="1130" type="curve"/>
      <point x="1311" y="1380" type="line"/>
      <point x="1192" y="1444"/>
      <point x="1065" y="1485"/>
      <point x="895" y="1485" type="curve" smooth="yes"/>
      <point x="471" y="1485"/>
      <point x="164" y="1186"/>
      <point x="164" y="772" type="curve" smooth="yes"/>
      <point x="164" y="500"/>
      <point x="334" y="346"/>
      <point x="571" y="289" type="curve"/>
    </contour>
  </outline>
</glyph>
<glyph name="afii10024" format="2">
  <advance width="1776"/>
  <unicode hex="0416"/>
  <anchor x="770" y="0" name="bottom"/>
  <anchor x="0" y="0" name="bottomright"/>
  <anchor x="1075" y="1462" name="top"/>
  <outline>
    <contour>
      <point x="-125" y="0" type="line"/>
      <point x="217" y="0" type="line"/>
      <point x="772" y="717" type="line"/>
      <point x="621" y="0" type="line"/>
      <point x="913" y="0" type="line"/>
      <point x="1065" y="719" type="line"/>
      <point x="1339" y="0" type="line"/>
      <point x="1655" y="0" type="line"/>
      <point x="1360" y="739" type="line"/>
      <point x="1942" y="1462" type="line"/>
      <point x="1614" y="1462" type="line"/>
      <point x="1077" y="778" type="line"/>
      <point x="1223" y="1462" type="line"/>
      <point x="930" y="1462" type="line"/>
      <point x="784" y="778" type="line"/>
      <point x="518" y="1462" type="line"/>
      <point x="215" y="1462" type="line"/>
      <point x="494" y="780" type="line"/>
    </contour>
  </outline>
</glyph>
<glyph name="afii10045" format="2">
  <advance width="1812"/>
  <unicode hex="042B"/>
  <anchor x="788" y="0" name="bottom"/>
  <anchor x="1087" y="1462" name="top"/>
  <outline>
    <contour>
      <point x="53" y="0" type="line"/>
      <point x="461" y="0" type="line"/>
      <point x="842" y="0"/>
      <point x="1075" y="164"/>
      <point x="1075" y="492" type="curve" smooth="yes"/>
      <point x="1075" y="735"/>
      <point x="930" y="901"/>
      <point x="586" y="901" type="curve" smooth="yes"/>
      <point x="549" y="901" type="line"/>
      <point x="668" y="1462" type="line"/>
      <point x="362" y="1462" type="line"/>
    </contour>
    <contour>
      <point x="412" y="254" type="line"/>
      <point x="496" y="647" type="line"/>
      <point x="573" y="647" type="line" smooth="yes"/>
      <point x="702" y="647"/>
      <point x="766" y="590"/>
      <point x="766" y="477" type="curve" smooth="yes"/>
      <point x="766" y="358"/>
      <point x="694" y="254"/>
      <point x="481" y="254" type="curve" smooth="yes"/>
    </contour>
    <contour>
      <point x="1200" y="0" type="line"/>
      <point x="1513" y="0" type="line"/>
      <point x="1823" y="1462" type="line"/>
      <point x="1509" y="1462" type="line"/>
    </contour>
  </outline>
</glyph>
<glyph name="afii10048" format="2">
  <advance width="2064"/>
  <unicode hex="042E"/>
  <anchor x="911" y="0" name="bottom"/>
  <anchor x="1223" y="1462" name="top"/>
  <outline>
    <contour>
      <point x="1278" y="-20" type="curve" smooth="yes"/>
      <point x="1782" y="-20"/>
      <point x="1997" y="451"/>
      <point x="1997" y="938" type="curve" smooth="yes"/>
      <point x="1997" y="1268"/>
      <point x="1825" y="1485"/>
      <point x="1491" y="1485" type="curve" smooth="yes"/>
      <point x="1118" y="1485"/>
      <point x="899" y="1214"/>
      <point x="809" y="889" type="curve"/>
      <point x="547" y="889" type="line"/>
      <point x="668" y="1462" type="line"/>
      <point x="362" y="1462" type="line"/>
      <point x="53" y="0" type="line"/>
      <point x="358" y="0" type="line"/>
      <point x="492" y="631" type="line"/>
      <point x="768" y="631" type="line"/>
      <point x="766" y="602"/>
      <point x="764" y="567"/>
      <point x="764" y="537" type="curve" smooth="yes"/>
      <point x="764" y="201"/>
      <point x="944" y="-20"/>
    </contour>
    <contour>
      <point x="1300" y="240" type="curve" smooth="yes"/>
      <point x="1159" y="240"/>
      <point x="1075" y="342"/>
      <point x="1075" y="537" type="curve" smooth="yes"/>
      <point x="1075" y="911"/>
      <point x="1239" y="1227"/>
      <point x="1464" y="1227" type="curve" smooth="yes"/>
      <point x="1612" y="1227"/>
      <point x="1686" y="1110"/>
      <point x="1686" y="930" type="curve" smooth="yes"/>
      <point x="1686" y="510"/>
      <point x="1511" y="240"/>
    </contour>
  </outline>
</glyph>
<glyph name="uni048D" format="2">
  <advance width="1163"/>
  <unicode hex="048D"/>
  <anchor x="461" y="0" name="bottom"/>
  <anchor x="791" y="1556" name="top"/>
  <outline>
    <contour>
      <point x="514" y="-20" type="curve"/>
      <point x="911" y="-20"/>
      <point x="1049" y="186"/>
      <point x="1049" y="383" type="curve"/>
      <point x="1049" y="555"/>
      <point x="928" y="686"/>
      <point x="694" y="686" type="curve"/>
      <point x="604" y="686"/>
      <point x="535" y="678"/>
      <point x="477" y="664" type="curve"/>
      <point x="578" y="1135" type="line"/>
      <point x="883" y="1135" type="line"/>
      <point x="924" y="1333" type="line"/>
      <point x="621" y="1333" type="line"/>
      <point x="670" y="1556" type="line"/>
      <point x="369" y="1556" type="line"/>
      <point x="322" y="1333" type="line"/>
      <point x="162" y="1333" type="line"/>
      <point x="121" y="1135" type="line"/>
      <point x="279" y="1135" type="line"/>
      <point x="139" y="487" type="line" smooth="yes"/>
      <point x="123" y="414"/>
      <point x="115" y="356"/>
      <point x="115" y="307" type="curve"/>
      <point x="115" y="121"/>
      <point x="221" y="-20"/>
    </contour>
    <contour>
      <point x="557" y="190" type="curve"/>
      <point x="453" y="190"/>
      <point x="414" y="250"/>
      <point x="414" y="317" type="curve"/>
      <point x="414" y="356"/>
      <point x="420" y="385"/>
      <point x="436" y="457" type="curve"/>
      <point x="496" y="469"/>
      <point x="553" y="475"/>
      <point x="596" y="475" type="curve"/>
      <point x="707" y="475"/>
      <point x="745" y="426"/>
      <point x="745" y="352" type="curve"/>
      <point x="745" y="264"/>
      <point x="682" y="190"/>
    </contour>
  </outline>
</glyph>
<glyph name="uni049E" format="2">
  <advance width="1219"/>
  <unicode hex="049E"/>
  <anchor x="492" y="0" name="bottom"/>
  <anchor x="842" y="1462" name="top"/>
  <outline>
    <contour>
      <point x="53" y="0" type="line"/>
      <point x="358" y="0" type="line"/>
      <point x="510" y="719" type="line"/>
      <point x="782" y="0" type="line"/>
      <point x="1120" y="0" type="line"/>
      <point x="825" y="739" type="line"/>
      <point x="1407" y="1462" type="line"/>
      <point x="1063" y="1462" type="line"/>
      <point x="522" y="778" type="line"/>
      <point x="586" y="1073" type="line"/>
      <point x="719" y="1073" type="line"/>
      <point x="772" y="1327" type="line"/>
      <point x="639" y="1327" type="line"/>
      <point x="668" y="1462" type="line"/>
      <point x="362" y="1462" type="line"/>
      <point x="334" y="1327" type="line"/>
      <point x="205" y="1327" type="line"/>
      <point x="152" y="1073" type="line"/>
      <point x="281" y="1073" type="line"/>
    </contour>
  </outline>
</glyph>
<glyph name="uni04A4" format="2">
  <advance width="1577"/>
  <unicode hex="04A4"/>
  <anchor x="670" y="0" name="bottom"/>
  <anchor x="981" y="1462" name="top"/>
  <outline>
    <contour>
      <point x="53" y="0" type="line"/>
      <point x="358" y="0" type="line"/>
      <point x="492" y="631" type="line"/>
      <point x="963" y="631" type="line"/>
      <point x="829" y="0" type="line"/>
      <point x="1135" y="0" type="line"/>
      <point x="1389" y="1204" type="line"/>
      <point x="1700" y="1204" type="line"/>
      <point x="1753" y="1462" type="line"/>
      <point x="1139" y="1462" type="line"/>
      <point x="1018" y="889" type="line"/>
      <point x="547" y="889" type="line"/>
      <point x="668" y="1462" type="line"/>
      <point x="362" y="1462" type="line"/>
    </contour>
  </outline>
</glyph>
<glyph name="uni04B2" format="2">
  <advance width="1415"/>
  <unicode hex="04B2"/>
  <anchor x="500" y="-426" name="bottom"/>
  <anchor x="901" y="1462" name="top"/>
  <outline>
    <contour>
      <point x="852" y="-426" type="line"/>
      <point x="1155" y="-426" type="line"/>
      <point x="1298" y="246" type="line"/>
      <point x="1034" y="246" type="line"/>
      <point x="856" y="737" type="line"/>
      <point x="1401" y="1462" type="line"/>
      <point x="1057" y="1462" type="line"/>
      <point x="694" y="944" type="line"/>
      <point x="541" y="1462" type="line"/>
      <point x="221" y="1462" type="line"/>
      <point x="459" y="764" type="line"/>
      <point x="-117" y="0" type="line"/>
      <point x="225" y="0" type="line"/>
      <point x="621" y="543" type="line"/>
      <point x="793" y="0" type="line"/>
      <point x="944" y="0" type="line"/>
    </contour>
  </outline>
</glyph>
<glyph name="uni04B3" format="2">
  <advance width="1204"/>
  <unicode hex="04B3"/>
  <anchor x="397" y="-401" name="bottom"/>
  <anchor x="721" y="1118" name="top"/>
  <outline>
    <contour>
      <point x="705" y="-401" type="line"/>
      <point x="983" y="-401" type="line"/>
      <point x="1120" y="250" type="line"/>
      <point x="854" y="250" type="line"/>
      <point x="721" y="557" type="line"/>
      <point x="1188" y="1118" type="line"/>
      <point x="834" y="1118" type="line"/>
      <point x="590" y="784" type="line"/>
      <point x="475" y="1118" type="line"/>
      <point x="154" y="1118" type="line"/>
      <point x="379" y="573" type="line"/>
      <point x="-100" y="0" type="line"/>
      <point x="250" y="0" type="line"/>
      <point x="514" y="342" type="line"/>
      <point x="639" y="0" type="line"/>
      <point x="799" y="0" type="line"/>
    </contour>
  </outline>
</glyph>
<glyph name="uni04C7" format="2">
  <advance width="1434"/>
  <unicode hex="04C7"/>
  <anchor x="489" y="-512" name="bottom"/>
  <anchor x="909" y="1462" name="top"/>
  <outline>
    <contour>
      <point x="543" y="-512" type="curve" smooth="yes"/>
      <point x="872" y="-512"/>
      <point x="1065" y="-332"/>
      <point x="1147" y="57" type="curve" smooth="yes"/>
      <point x="1444" y="1462" type="line"/>
      <point x="1139" y="1462" type="line"/>
      <point x="1018" y="889" type="line"/>
      <point x="547" y="889" type="line"/>
      <point x="668" y="1462" type="line"/>
      <point x="362" y="1462" type="line"/>
      <point x="53" y="0" type="line"/>
      <point x="358" y="0" type="line"/>
      <point x="492" y="631" type="line"/>
      <point x="963" y="631" type="line"/>
      <point x="856" y="125" type="line" smooth="yes"/>
      <point x="803" y="-131"/>
      <point x="698" y="-240"/>
      <point x="522" y="-240" type="curve" smooth="yes"/>
      <point x="406" y="-240"/>
      <point x="330" y="-221"/>
      <point x="250" y="-190" type="curve"/>
      <point x="250" y="-463" type="line"/>
      <point x="336" y="-498"/>
      <point x="428" y="-512"/>
    </contour>
  </outline>
</glyph>
<glyph name="uni04CE" format="2">
  <advance width="1714"/>
  <unicode hex="04CE"/>
  <anchor x="653" y="-401" name="bottom"/>
  <anchor x="915" y="1118" name="top"/>
  <outline>
    <contour>
      <point x="1077" y="-401" type="line"/>
      <point x="1380" y="-401" type="line"/>
      <point x="1653" y="223" type="line"/>
      <point x="1382" y="223" type="line"/>
      <point x="1575" y="1120" type="line"/>
      <point x="1147" y="1120" type="line"/>
      <point x="745" y="338" type="line"/>
      <point x="739" y="338" type="line"/>
      <point x="696" y="1120" type="line"/>
      <point x="281" y="1120" type="line"/>
      <point x="45" y="0" type="line"/>
      <point x="322" y="0" type="line"/>
      <point x="430" y="541" type="line" smooth="yes"/>
      <point x="449" y="627"/>
      <point x="465" y="713"/>
      <point x="479" y="823" type="curve"/>
      <point x="483" y="823" type="line"/>
      <point x="528" y="0" type="line"/>
      <point x="817" y="0" type="line"/>
      <point x="1241" y="823" type="line"/>
      <point x="1247" y="823" type="line"/>
      <point x="1229" y="762"/>
      <point x="1202" y="657"/>
      <point x="1180" y="553" type="curve" smooth="yes"/>
      <point x="1057" y="0" type="line"/>
      <point x="1294" y="0" type="line"/>
    </contour>
  </outline>
</glyph>
<glyph name="uni04D9" format="2">
  <advance width="1141"/>
  <unicode hex="04D9"/>
  <anchor x="453" y="0" name="bottom"/>
  <anchor x="690" y="1118" name="top"/>
  <outline>
    <contour>
      <point x="426" y="-20" type="curve" smooth="yes"/>
      <point x="834" y="-20"/>
      <point x="1051" y="332"/>
      <point x="1051" y="707" type="curve" smooth="yes"/>
      <point x="1051" y="997"/>
      <point x="870" y="1139"/>
      <point x="608" y="1139" type="curve" smooth="yes"/>
      <point x="449" y="1139"/>
      <point x="336" y="1110"/>
      <point x="219" y="1053" type="curve"/>
      <point x="219" y="825" type="line"/>
      <point x="350" y="887"/>
      <point x="432" y="911"/>
      <point x="549" y="911" type="curve" smooth="yes"/>
      <point x="676" y="911"/>
      <point x="748" y="836"/>
      <point x="748" y="715" type="curve" smooth="yes"/>
      <point x="748" y="700"/>
      <point x="748" y="690"/>
      <point x="745" y="674" type="curve"/>
      <point x="694" y="674" type="line" smooth="yes"/>
      <point x="260" y="674"/>
      <point x="51" y="520"/>
      <point x="51" y="285" type="curve" smooth="yes"/>
      <point x="51" y="106"/>
      <point x="176" y="-20"/>
    </contour>
    <contour>
      <point x="444" y="197" type="curve" smooth="yes"/>
      <point x="379" y="197"/>
      <point x="340" y="227"/>
      <point x="340" y="291" type="curve" smooth="yes"/>
      <point x="340" y="387"/>
      <point x="436" y="471"/>
      <point x="668" y="471" type="curve" smooth="yes"/>
      <point x="713" y="471" type="line"/>
      <point x="678" y="309"/>
      <point x="557" y="197"/>
    </contour>
  </outline>
</glyph>
<glyph name="uni04E1" format="2">
  <advance width="1120"/>
  <unicode hex="04E1"/>
  <anchor x="338" y="-496" name="bottom"/>
  <anchor x="680" y="1118" name="top"/>
  <outline>
    <contour>
      <point x="287" y="-496" type="curve" smooth="yes"/>
      <point x="666" y="-496"/>
      <point x="915" y="-266"/>
      <point x="915" y="92" type="curve" smooth="yes"/>
      <point x="915" y="299"/>
      <point x="780" y="453"/>
      <point x="547" y="473" type="curve"/>
      <point x="1028" y="922" type="line"/>
      <point x="1069" y="1118" type="line"/>
      <point x="215" y="1118" type="line"/>
      <point x="166" y="885" type="line"/>
      <point x="651" y="885" type="line"/>
      <point x="252" y="500" type="line"/>
      <point x="207" y="285" type="line"/>
      <point x="342" y="285" type="line" smooth="yes"/>
      <point x="522" y="285"/>
      <point x="602" y="190"/>
      <point x="602" y="63" type="curve" smooth="yes"/>
      <point x="602" y="-102"/>
      <point x="492" y="-244"/>
      <point x="250" y="-244" type="curve" smooth="yes"/>
      <point x="158" y="-244"/>
      <point x="18" y="-211"/>
      <point x="-90" y="-150" type="curve"/>
      <point x="-90" y="-416" type="line"/>
      <point x="10" y="-465"/>
      <point x="135" y="-496"/>
    </contour>
  </outline>
</glyph>
<glyph name="uni04FF" format="2">
  <advance width="1087"/>
  <unicode hex="04FF"/>
  <anchor x="426" y="0" name="bottom"/>
  <anchor x="664" y="1118" name="top"/>
  <outline>
    <contour>
      <point x="-100" y="0" type="line"/>
      <point x="250" y="0" type="line"/>
      <point x="514" y="342" type="line"/>
      <point x="639" y="0" type="line"/>
      <point x="965" y="0" type="line"/>
      <point x="766" y="451" type="line"/>
      <point x="971" y="451" type="line"/>
      <point x="1020" y="680" type="line"/>
      <point x="821" y="680" type="line"/>
      <point x="1188" y="1118" type="line"/>
      <point x="834" y="1118" type="line"/>
      <point x="590" y="784" type="line"/>
      <point x="475" y="1118" type="line"/>
      <point x="154" y="1118" type="line"/>
      <point x="336" y="680" type="line"/>
      <point x="137" y="680" type="line"/>
      <point x="88" y="451" type="line"/>
      <point x="279" y="451" type="line"/>
    </contour>
  </outline>
</glyph>
<glyph name="uni0502" format="2">
  <advance width="1769"/>
  <unicode hex="0502"/>
  <anchor x="766" y="0" name="bottom"/>
  <anchor x="1077" y="1462" name="top"/>
  <outline>
    <contour>
      <point x="1077" y="-20" type="curve" smooth="yes"/>
      <point x="1343" y="-20"/>
      <point x="1499" y="100"/>
      <point x="1559" y="381" type="curve" smooth="yes"/>
      <point x="1657" y="848" type="line"/>
      <point x="1348" y="848" type="line"/>
      <point x="1264" y="451" type="line" smooth="yes"/>
      <point x="1231" y="301"/>
      <point x="1180" y="236"/>
      <point x="1087" y="236" type="curve" smooth="yes"/>
      <point x="1014" y="236"/>
      <point x="969" y="276"/>
      <point x="969" y="352" type="curve" smooth="yes"/>
      <point x="969" y="371"/>
      <point x="971" y="389"/>
      <point x="977" y="418" type="curve" smooth="yes"/>
      <point x="1198" y="1462" type="line"/>
      <point x="895" y="1462" type="line"/>
      <point x="776" y="901" type="line"/>
      <point x="680" y="901" type="line" smooth="yes"/>
      <point x="319" y="901"/>
      <point x="61" y="702"/>
      <point x="61" y="354" type="curve" smooth="yes"/>
      <point x="61" y="131"/>
      <point x="195" y="-18"/>
      <point x="446" y="-18" type="curve" smooth="yes"/>
      <point x="594" y="-18"/>
      <point x="678" y="31"/>
      <point x="770" y="109" type="curve"/>
      <point x="825" y="25"/>
      <point x="948" y="-20"/>
    </contour>
    <contour>
      <point x="502" y="236" type="curve" smooth="yes"/>
      <point x="422" y="236"/>
      <point x="367" y="283"/>
      <point x="367" y="383" type="curve" smooth="yes"/>
      <point x="367" y="561"/>
      <point x="494" y="647"/>
      <point x="668" y="647" type="curve" smooth="yes"/>
      <point x="721" y="647" type="line"/>
      <point x="668" y="393" type="line"/>
      <point x="643" y="279"/>
      <point x="580" y="236"/>
    </contour>
  </outline>
</glyph>
<glyph name="uni0512" format="2">
  <advance width="1589"/>
  <unicode hex="0512"/>
  <anchor x="571" y="-496" name="bottom"/>
  <anchor x="987" y="1462" name="top"/>
  <outline>
    <contour>
      <point x="1006" y="-496" type="curve" smooth="yes"/>
      <point x="1219" y="-496"/>
      <point x="1343" y="-387"/>
      <point x="1397" y="-125" type="curve" smooth="yes"/>
      <point x="1485" y="303" type="line"/>
      <point x="1186" y="303" type="line"/>
      <point x="1434" y="1462" type="line"/>
      <point x="573" y="1462" type="line"/>
      <point x="442" y="961"/>
      <point x="352" y="655"/>
      <point x="274" y="475" type="curve" smooth="yes"/>
      <point x="195" y="293"/>
      <point x="127" y="238"/>
      <point x="39" y="238" type="curve" smooth="yes"/>
      <point x="0" y="238"/>
      <point x="-29" y="246"/>
      <point x="-61" y="258" type="curve"/>
      <point x="-61" y="4" type="line"/>
      <point x="-23" y="-10"/>
      <point x="27" y="-20"/>
      <point x="82" y="-20" type="curve" smooth="yes"/>
      <point x="295" y="-20"/>
      <point x="426" y="68"/>
      <point x="555" y="375" type="curve" smooth="yes"/>
      <point x="633" y="561"/>
      <point x="709" y="827"/>
      <point x="803" y="1204" type="curve"/>
      <point x="1075" y="1204" type="line"/>
      <point x="819" y="0" type="line"/>
      <point x="1122" y="0" type="line"/>
      <point x="1106" y="-80" type="line" smooth="yes"/>
      <point x="1077" y="-215"/>
      <point x="1018" y="-250"/>
      <point x="944" y="-250" type="curve" smooth="yes"/>
      <point x="905" y="-250"/>
      <point x="864" y="-242"/>
      <point x="829" y="-229" type="curve"/>
      <point x="829" y="-469" type="line"/>
      <point x="872" y="-485"/>
      <point x="942" y="-496"/>
    </contour>
  </outline>
</glyph>
<glyph name="uni0517" format="2">
  <advance width="1657"/>
  <unicode hex="0517"/>
  <anchor x="606" y="-492" name="bottom"/>
  <anchor x="948" y="1118" name="top"/>
  <outline>
    <contour>
      <point x="-68" y="-492" type="line"/>
      <point x="233" y="-492" type="line"/>
      <point x="305" y="-152" type="line" smooth="yes"/>
      <point x="328" y="-49"/>
      <point x="340" y="35"/>
      <point x="348" y="143" type="curve"/>
      <point x="356" y="143" type="line"/>
      <point x="410" y="51"/>
      <point x="473" y="-20"/>
      <point x="610" y="-20" type="curve" smooth="yes"/>
      <point x="823" y="-20"/>
      <point x="985" y="158"/>
      <point x="1067" y="385" type="curve"/>
      <point x="1208" y="0" type="line"/>
      <point x="1534" y="0" type="line"/>
      <point x="1290" y="557" type="line"/>
      <point x="1757" y="1118" type="line"/>
      <point x="1403" y="1118" type="line"/>
      <point x="1128" y="737" type="line"/>
      <point x="1128" y="756"/>
      <point x="1128" y="772"/>
      <point x="1128" y="788" type="curve" smooth="yes"/>
      <point x="1128" y="1047"/>
      <point x="971" y="1139"/>
      <point x="831" y="1139" type="curve" smooth="yes"/>
      <point x="668" y="1139"/>
      <point x="565" y="1044"/>
      <point x="496" y="948" type="curve"/>
      <point x="487" y="948" type="line"/>
      <point x="504" y="1118" type="line"/>
      <point x="274" y="1118" type="line"/>
    </contour>
    <contour>
      <point x="559" y="223" type="curve" smooth="yes"/>
      <point x="473" y="223"/>
      <point x="420" y="293"/>
      <point x="420" y="399" type="curve" smooth="yes"/>
      <point x="420" y="563"/>
      <point x="498" y="895"/>
      <point x="692" y="895" type="curve" smooth="yes"/>
      <point x="780" y="895"/>
      <point x="823" y="836"/>
      <point x="823" y="719" type="curve" smooth="yes"/>
      <point x="823" y="483"/>
      <point x="707" y="223"/>
    </contour>
  </outline>
</glyph>
<glyph name="uni0529" format="2">
  <advance width="1262"/>
  <unicode hex="0529"/>
  <anchor x="408" y="-492" name="bottom"/>
  <anchor x="750" y="1118" name="top"/>
  <outline>
    <contour>
      <point x="-90" y="-492" type="curve" smooth="yes"/>
      <point x="162" y="-492"/>
      <point x="270" y="-326"/>
      <point x="313" y="-121" type="curve" smooth="yes"/>
      <point x="438" y="461" type="line"/>
      <point x="784" y="461" type="line"/>
      <point x="688" y="0" type="line"/>
      <point x="989" y="0" type="line"/>
      <point x="1227" y="1118" type="line"/>
      <point x="926" y="1118" type="line"/>
      <point x="836" y="688" type="line"/>
      <point x="487" y="688" type="line"/>
      <point x="580" y="1118" type="line"/>
      <point x="276" y="1118" type="line"/>
      <point x="23" y="-76" type="line" smooth="yes"/>
      <point x="-2" y="-195"/>
      <point x="-68" y="-246"/>
      <point x="-150" y="-246" type="curve" smooth="yes"/>
      <point x="-188" y="-246"/>
      <point x="-221" y="-240"/>
      <point x="-264" y="-225" type="curve"/>
      <point x="-264" y="-467" type="line"/>
      <point x="-223" y="-481"/>
      <point x="-154" y="-492"/>
    </contour>
  </outline>
</glyph>
<glyph name="uni1AB3" format="2">
  <unicode hex="1AB3"/>
  <anchor x="117" y="1118" name="_top"/>
  <anchor x="197" y="1745" name="top"/>
  <outline>
    <contour>
      <point x="113" y="1186" type="curve"/>
      <point x="147" y="1186" type="line"/>
      <point x="207" y="1270"/>
      <point x="289" y="1348"/>
      <point x="395" y="1417" type="curve"/>
      <point x="418" y="1526" type="line"/>
      <point x="358" y="1507"/>
      <point x="297" y="1470"/>
      <point x="250" y="1442" type="curve"/>
      <point x="313" y="1745" type="line"/>
      <point x="182" y="1745" type="line"/>
      <point x="119" y="1442" type="line"/>
      <point x="88" y="1468"/>
      <point x="41" y="1505"/>
      <point x="-12" y="1526" type="curve"/>
      <point x="-35" y="1417" type="line"/>
      <point x="39" y="1348"/>
      <point x="90" y="1270"/>
    </contour>
  </outline>
</glyph>
<glyph name="uni1AB4" format="2">
  <unicode hex="1AB4"/>
  <anchor x="-944" y="1118" name="_top"/>
  <anchor x="-842" y="1896" name="top"/>
  <outline>
    <contour>
      <point x="-780" y="1628" type="curve" smooth="yes"/>
      <point x="-678" y="1628"/>
      <point x="-631" y="1692"/>
      <point x="-631" y="1788" type="curve" smooth="yes"/>
      <point x="-631" y="1870"/>
      <point x="-688" y="1896"/>
      <point x="-756" y="1896" type="curve" smooth="yes"/>
      <point x="-852" y="1896"/>
      <point x="-907" y="1841"/>
      <point x="-907" y="1739" type="curve" smooth="yes"/>
      <point x="-907" y="1657"/>
      <point x="-854" y="1628"/>
    </contour>
    <contour>
      <point x="-1049" y="1272" type="curve" smooth="yes"/>
      <point x="-946" y="1272"/>
      <point x="-899" y="1335"/>
      <point x="-899" y="1432" type="curve" smooth="yes"/>
      <point x="-899" y="1513"/>
      <point x="-956" y="1540"/>
      <point x="-1024" y="1540" type="curve" smooth="yes"/>
      <point x="-1120" y="1540"/>
      <point x="-1176" y="1485"/>
      <point x="-1176" y="1382" type="curve" smooth="yes"/>
      <point x="-1176" y="1300"/>
      <point x="-1122" y="1272"/>
    </contour>
    <contour>
      <point x="-666" y="1272" type="curve" smooth="yes"/>
      <point x="-563" y="1272"/>
      <point x="-516" y="1335"/>
      <point x="-516" y="1432" type="curve" smooth="yes"/>
      <point x="-516" y="1513"/>
      <point x="-573" y="1540"/>
      <point x="-641" y="1540" type="curve" smooth="yes"/>
      <point x="-737" y="1540"/>
      <point x="-793" y="1485"/>
      <point x="-793" y="1382" type="curve" smooth="yes"/>
      <point x="-793" y="1300"/>
      <point x="-739" y="1272"/>
    </contour>
  </outline>
</glyph>
<glyph name="uni1ABE" format="2">
  <unicode hex="1ABE"/>
  <anchor x="-27" y="449" name="_center"/>
  <outline>
    <contour>
      <point x="473" y="219" type="curve"/>
      <point x="604" y="219" type="line"/>
      <point x="686" y="309"/>
      <point x="727" y="422"/>
      <point x="727" y="530" type="curve" smooth="yes"/>
      <point x="727" y="582"/>
      <point x="719" y="641"/>
      <point x="700" y="678" type="curve"/>
      <point x="569" y="678" type="line"/>
      <point x="584" y="641"/>
      <point x="590" y="582"/>
      <point x="590" y="535" type="curve" smooth="yes"/>
      <point x="590" y="416"/>
      <point x="543" y="307"/>
    </contour>
    <contour>
      <point x="-756" y="219" type="curve"/>
      <point x="-623" y="219" type="line"/>
      <point x="-637" y="256"/>
      <point x="-643" y="313"/>
      <point x="-643" y="362" type="curve" smooth="yes"/>
      <point x="-643" y="477"/>
      <point x="-598" y="586"/>
      <point x="-526" y="678" type="curve"/>
      <point x="-659" y="678" type="line"/>
      <point x="-745" y="580"/>
      <point x="-780" y="461"/>
      <point x="-780" y="360" type="curve" smooth="yes"/>
      <point x="-780" y="311"/>
      <point x="-774" y="254"/>
    </contour>
  </outline>
</glyph>
<glyph name="uni1C83" format="2">
  <advance width="1167"/>
  <unicode hex="1C83"/>
  <anchor x="465" y="0" name="bottom"/>
  <anchor x="702" y="1118" name="top"/>
  <outline>
    <contour>
      <point x="584" y="-20" type="curve"/>
      <point x="784" y="-20"/>
      <point x="930" y="25"/>
      <point x="1024" y="74" type="curve"/>
      <point x="1042" y="313" type="line"/>
      <point x="950" y="266"/>
      <point x="817" y="223"/>
      <point x="655" y="223" type="curve" smooth="yes"/>
      <point x="465" y="223"/>
      <point x="371" y="332"/>
      <point x="371" y="508" type="curve" smooth="yes"/>
      <point x="371" y="743"/>
      <point x="520" y="895"/>
      <point x="772" y="895" type="curve" smooth="yes"/>
      <point x="934" y="895"/>
      <point x="1028" y="844"/>
      <point x="1100" y="805" type="curve"/>
      <point x="1212" y="1042" type="line"/>
      <point x="1120" y="1090"/>
      <point x="987" y="1139"/>
      <point x="760" y="1139" type="curve"/>
      <point x="319" y="1139"/>
      <point x="66" y="872"/>
      <point x="66" y="471" type="curve" smooth="yes"/>
      <point x="66" y="176"/>
      <point x="250" y="-20"/>
    </contour>
  </outline>
</glyph>
<glyph name="uni1C84" format="2">
  <advance width="983"/>
  <unicode hex="1C84"/>
  <anchor x="373" y="0" name="bottom"/>
  <anchor x="684" y="1462" name="top"/>
  <outline>
    <contour>
      <point x="221" y="0" type="line"/>
      <point x="565" y="0" type="line"/>
      <point x="1073" y="1462" type="line"/>
      <point x="242" y="1462" type="line"/>
      <point x="186" y="1202" type="line"/>
      <point x="666" y="1202" type="line"/>
    </contour>
  </outline>
</glyph>
<glyph name="uni1D01" format="2">
  <advance width="1389"/>
  <unicode hex="1D01"/>
  <anchor x="575" y="0" name="bottom"/>
  <anchor x="813" y="1118" name="top"/>
  <outline>
    <contour>
      <point x="-113" y="0" type="line"/>
      <point x="133" y="0" type="line"/>
      <point x="297" y="270" type="line"/>
      <point x="616" y="270" type="line"/>
      <point x="561" y="0" type="line"/>
      <point x="1174" y="0" type="line"/>
      <point x="1214" y="193" type="line"/>
      <point x="829" y="193" type="line"/>
      <point x="891" y="487" type="line"/>
      <point x="1247" y="487" type="line"/>
      <point x="1290" y="678" type="line"/>
      <point x="932" y="678" type="line"/>
      <point x="983" y="928" type="line"/>
      <point x="1366" y="928" type="line"/>
      <point x="1407" y="1118" type="line"/>
      <point x="578" y="1118" type="line"/>
    </contour>
    <contour>
      <point x="420" y="465" type="line"/>
      <point x="694" y="928" type="line"/>
      <point x="754" y="928" type="line"/>
      <point x="657" y="465" type="line"/>
    </contour>
  </outline>
</glyph>
<glyph name="uni1D15" format="2">
  <advance width="1208"/>
  <unicode hex="1D15"/>
  <anchor x="485" y="0" name="bottom"/>
  <anchor x="723" y="1118" name="top"/>
  <outline>
    <contour>
      <point x="504" y="-14" type="curve" smooth="yes"/>
      <point x="842" y="-14"/>
      <point x="1053" y="119"/>
      <point x="1053" y="430" type="curve" smooth="yes"/>
      <point x="1053" y="539"/>
      <point x="1006" y="618"/>
      <point x="907" y="678" type="curve"/>
      <point x="1040" y="737"/>
      <point x="1104" y="850"/>
      <point x="1135" y="991" type="curve" smooth="yes"/>
      <point x="1161" y="1118" type="line"/>
      <point x="932" y="1118" type="line"/>
      <point x="905" y="993" type="line" smooth="yes"/>
      <point x="877" y="862"/>
      <point x="799" y="780"/>
      <point x="647" y="780" type="curve" smooth="yes"/>
      <point x="522" y="780"/>
      <point x="465" y="836"/>
      <point x="465" y="920" type="curve" smooth="yes"/>
      <point x="465" y="940"/>
      <point x="471" y="965"/>
      <point x="475" y="989" type="curve" smooth="yes"/>
      <point x="500" y="1118" type="line"/>
      <point x="274" y="1118" type="line"/>
      <point x="248" y="989" type="line" smooth="yes"/>
      <point x="240" y="956"/>
      <point x="238" y="928"/>
      <point x="238" y="901" type="curve" smooth="yes"/>
      <point x="238" y="815"/>
      <point x="274" y="752"/>
      <point x="346" y="709" type="curve"/>
      <point x="162" y="639"/>
      <point x="66" y="514"/>
      <point x="66" y="338" type="curve" smooth="yes"/>
      <point x="66" y="133"/>
      <point x="207" y="-14"/>
    </contour>
    <contour>
      <point x="530" y="182" type="curve" smooth="yes"/>
      <point x="377" y="182"/>
      <point x="301" y="248"/>
      <point x="301" y="350" type="curve" smooth="yes"/>
      <point x="301" y="522"/>
      <point x="434" y="586"/>
      <point x="596" y="586" type="curve" smooth="yes"/>
      <point x="748" y="586"/>
      <point x="817" y="522"/>
      <point x="817" y="424" type="curve" smooth="yes"/>
      <point x="817" y="260"/>
      <point x="723" y="182"/>
    </contour>
  </outline>
</glyph>
<glyph name="uni1D6D" format="2">
  <advance width="1217"/>
  <unicode hex="1D6D"/>
  <outline>
    <contour>
      <point x="406" y="-20" type="curve" smooth="yes"/>
      <point x="549" y="-20"/>
      <point x="645" y="47"/>
      <point x="725" y="145" type="curve"/>
      <point x="733" y="145" type="line"/>
      <point x="715" y="0" type="line"/>
      <point x="944" y="0" type="line"/>
      <point x="1196" y="1192" type="line"/>
      <point x="1210" y="1188"/>
      <point x="1227" y="1186"/>
      <point x="1245" y="1186" type="curve" smooth="yes"/>
      <point x="1378" y="1186"/>
      <point x="1495" y="1272"/>
      <point x="1544" y="1495" type="curve"/>
      <point x="1393" y="1495" type="line"/>
      <point x="1366" y="1419"/>
      <point x="1333" y="1386"/>
      <point x="1286" y="1386" type="curve" smooth="yes"/>
      <point x="1270" y="1386"/>
      <point x="1251" y="1391"/>
      <point x="1239" y="1395" type="curve"/>
      <point x="1274" y="1556" type="line"/>
      <point x="973" y="1556" type="line"/>
      <point x="958" y="1487" type="line"/>
      <point x="948" y="1489"/>
      <point x="930" y="1491"/>
      <point x="915" y="1491" type="curve" smooth="yes"/>
      <point x="780" y="1491"/>
      <point x="662" y="1407"/>
      <point x="612" y="1184" type="curve"/>
      <point x="764" y="1184" type="line"/>
      <point x="784" y="1249"/>
      <point x="817" y="1290"/>
      <point x="868" y="1290" type="curve" smooth="yes"/>
      <point x="885" y="1290"/>
      <point x="901" y="1288"/>
      <point x="915" y="1284" type="curve"/>
      <point x="897" y="1198" type="line" smooth="yes"/>
      <point x="877" y="1104"/>
      <point x="870" y="967"/>
      <point x="870" y="954" type="curve"/>
      <point x="862" y="954" type="line"/>
      <point x="809" y="1047"/>
      <point x="741" y="1118"/>
      <point x="608" y="1118" type="curve" smooth="yes"/>
      <point x="293" y="1118"/>
      <point x="90" y="760"/>
      <point x="90" y="387" type="curve" smooth="yes"/>
      <point x="90" y="90"/>
      <point x="244" y="-20"/>
    </contour>
    <contour>
      <point x="532" y="223" type="curve" smooth="yes"/>
      <point x="444" y="223"/>
      <point x="395" y="283"/>
      <point x="395" y="399" type="curve" smooth="yes"/>
      <point x="395" y="645"/>
      <point x="512" y="874"/>
      <point x="659" y="874" type="curve" smooth="yes"/>
      <point x="745" y="874"/>
      <point x="799" y="807"/>
      <point x="799" y="705" type="curve" smooth="yes"/>
      <point x="799" y="551"/>
      <point x="721" y="223"/>
    </contour>
  </outline>
</glyph>
<glyph name="uni1D73" format="2">
  <advance width="774"/>
  <unicode hex="1D73"/>
  <outline>
    <contour>
      <point x="27" y="0" type="line"/>
      <point x="330" y="0" type="line"/>
      <point x="397" y="322" type="line"/>
      <point x="412" y="319"/>
      <point x="428" y="317"/>
      <point x="446" y="317" type="curve" smooth="yes"/>
      <point x="580" y="317"/>
      <point x="696" y="401"/>
      <point x="745" y="625" type="curve"/>
      <point x="594" y="625" type="line"/>
      <point x="567" y="549"/>
      <point x="535" y="516"/>
      <point x="487" y="516" type="curve" smooth="yes"/>
      <point x="471" y="516"/>
      <point x="453" y="520"/>
      <point x="440" y="524" type="curve"/>
      <point x="481" y="717" type="line"/>
      <point x="504" y="825"/>
      <point x="559" y="883"/>
      <point x="657" y="883" type="curve" smooth="yes"/>
      <point x="709" y="883"/>
      <point x="741" y="874"/>
      <point x="778" y="862" type="curve"/>
      <point x="844" y="1106" type="line"/>
      <point x="776" y="1126"/>
      <point x="705" y="1143"/>
      <point x="614" y="1143" type="curve" smooth="yes"/>
      <point x="365" y="1143"/>
      <point x="242" y="1014"/>
      <point x="182" y="735" type="curve" smooth="yes"/>
      <point x="158" y="618" type="line"/>
      <point x="147" y="621"/>
      <point x="131" y="623"/>
      <point x="117" y="623" type="curve" smooth="yes"/>
      <point x="-18" y="623"/>
      <point x="-137" y="539"/>
      <point x="-186" y="315" type="curve"/>
      <point x="-35" y="315" type="line"/>
      <point x="-14" y="381"/>
      <point x="20" y="424"/>
      <point x="72" y="424" type="curve" smooth="yes"/>
      <point x="88" y="424"/>
      <point x="100" y="422"/>
      <point x="115" y="418" type="curve"/>
    </contour>
  </outline>
</glyph>
<glyph name="uni1D77" format="2">
  <advance width="1217"/>
  <unicode hex="1D77"/>
  <outline>
    <contour>
      <point x="614" y="-20" type="curve" smooth="yes"/>
      <point x="920" y="-20"/>
      <point x="1126" y="369"/>
      <point x="1126" y="733" type="curve" smooth="yes"/>
      <point x="1126" y="1016"/>
      <point x="987" y="1139"/>
      <point x="825" y="1139" type="curve" smooth="yes"/>
      <point x="686" y="1139"/>
      <point x="600" y="1061"/>
      <point x="528" y="969" type="curve"/>
      <point x="520" y="969" type="line"/>
      <point x="532" y="1010"/>
      <point x="555" y="1083"/>
      <point x="569" y="1133" type="curve" smooth="yes"/>
      <point x="578" y="1163" type="line" smooth="yes"/>
      <point x="614" y="1300"/>
      <point x="702" y="1362"/>
      <point x="842" y="1362" type="curve" smooth="yes"/>
      <point x="971" y="1362"/>
      <point x="1085" y="1331"/>
      <point x="1190" y="1276" type="curve"/>
      <point x="1190" y="1538" type="line"/>
      <point x="1090" y="1583"/>
      <point x="993" y="1610"/>
      <point x="825" y="1610" type="curve" smooth="yes"/>
      <point x="549" y="1610"/>
      <point x="354" y="1497"/>
      <point x="279" y="1145" type="curve" smooth="yes"/>
      <point x="35" y="0" type="line"/>
      <point x="266" y="0" type="line"/>
      <point x="324" y="143" type="line"/>
      <point x="332" y="143" type="line"/>
      <point x="397" y="43"/>
      <point x="469" y="-20"/>
    </contour>
    <contour>
      <point x="555" y="223" type="curve" smooth="yes"/>
      <point x="471" y="223"/>
      <point x="418" y="293"/>
      <point x="418" y="399" type="curve" smooth="yes"/>
      <point x="418" y="602"/>
      <point x="512" y="895"/>
      <point x="680" y="895" type="curve"/>
      <point x="768" y="895"/>
      <point x="821" y="836"/>
      <point x="821" y="719" type="curve" smooth="yes"/>
      <point x="821" y="483"/>
      <point x="707" y="223"/>
    </contour>
  </outline>
</glyph>
<glyph name="uni1D83" format="2">
  <advance width="1608"/>
  <unicode hex="1D83"/>
  <outline>
    <contour>
      <point x="391" y="-492" type="curve" smooth="yes"/>
      <point x="668" y="-492"/>
      <point x="862" y="-379"/>
      <point x="938" y="-27" type="curve" smooth="yes"/>
      <point x="952" y="43" type="line"/>
      <point x="1210" y="43" type="line"/>
      <point x="1174" y="-131" type="line" smooth="yes"/>
      <point x="1157" y="-211"/>
      <point x="1120" y="-250"/>
      <point x="1055" y="-250" type="curve" smooth="yes"/>
      <point x="1022" y="-250"/>
      <point x="981" y="-242"/>
      <point x="956" y="-231" type="curve"/>
      <point x="956" y="-444" type="line"/>
      <point x="995" y="-461"/>
      <point x="1047" y="-471"/>
      <point x="1108" y="-471" type="curve" smooth="yes"/>
      <point x="1282" y="-471"/>
      <point x="1374" y="-379"/>
      <point x="1427" y="-133" type="curve" smooth="yes"/>
      <point x="1509" y="252" type="line"/>
      <point x="997" y="252" type="line"/>
      <point x="1182" y="1118" type="line"/>
      <point x="950" y="1118" type="line"/>
      <point x="893" y="975" type="line"/>
      <point x="885" y="975" type="line"/>
      <point x="819" y="1075"/>
      <point x="748" y="1139"/>
      <point x="602" y="1139" type="curve" smooth="yes"/>
      <point x="297" y="1139"/>
      <point x="90" y="750"/>
      <point x="90" y="385" type="curve" smooth="yes"/>
      <point x="90" y="102"/>
      <point x="229" y="-20"/>
      <point x="391" y="-20" type="curve" smooth="yes"/>
      <point x="530" y="-20"/>
      <point x="616" y="57"/>
      <point x="688" y="150" type="curve"/>
      <point x="696" y="150" type="line"/>
      <point x="684" y="109"/>
      <point x="662" y="35"/>
      <point x="647" y="-14" type="curve" smooth="yes"/>
      <point x="639" y="-45" type="line" smooth="yes"/>
      <point x="602" y="-182"/>
      <point x="514" y="-244"/>
      <point x="375" y="-244" type="curve" smooth="yes"/>
      <point x="246" y="-244"/>
      <point x="131" y="-213"/>
      <point x="27" y="-158" type="curve"/>
      <point x="27" y="-420" type="line"/>
      <point x="127" y="-465"/>
      <point x="223" y="-492"/>
    </contour>
    <contour>
      <point x="537" y="223" type="curve" smooth="yes"/>
      <point x="449" y="223"/>
      <point x="395" y="283"/>
      <point x="395" y="399" type="curve" smooth="yes"/>
      <point x="395" y="635"/>
      <point x="510" y="895"/>
      <point x="662" y="895" type="curve" smooth="yes"/>
      <point x="745" y="895"/>
      <point x="799" y="825"/>
      <point x="799" y="719" type="curve" smooth="yes"/>
      <point x="799" y="516"/>
      <point x="705" y="223"/>
    </contour>
  </outline>
</glyph>
<glyph name="uni1D8E" format="2">
  <advance width="932"/>
  <unicode hex="1D8E"/>
  <outline>
    <contour>
      <point x="399" y="-471" type="curve" smooth="yes"/>
      <point x="573" y="-471"/>
      <point x="666" y="-379"/>
      <point x="719" y="-133" type="curve" smooth="yes"/>
      <point x="797" y="233" type="line"/>
      <point x="358" y="233" type="line"/>
      <point x="924" y="918" type="line"/>
      <point x="967" y="1118" type="line"/>
      <point x="217" y="1118" type="line"/>
      <point x="166" y="885" type="line"/>
      <point x="563" y="885" type="line"/>
      <point x="-12" y="180" type="line"/>
      <point x="-47" y="0" type="line"/>
      <point x="494" y="0" type="line"/>
      <point x="465" y="-131" type="line" smooth="yes"/>
      <point x="449" y="-211"/>
      <point x="412" y="-250"/>
      <point x="346" y="-250" type="curve" smooth="yes"/>
      <point x="313" y="-250"/>
      <point x="272" y="-242"/>
      <point x="248" y="-231" type="curve"/>
      <point x="248" y="-444" type="line"/>
      <point x="287" y="-461"/>
      <point x="338" y="-471"/>
    </contour>
  </outline>
</glyph>
<glyph name="longshighstroke" format="2">
  <advance width="733"/>
  <unicode hex="1E9D"/>
  <anchor x="143" y="-492" name="bottom"/>
  <anchor x="582" y="1567" name="top"/>
  <outline>
    <contour>
      <point x="80" y="979" type="line"/>
      <point x="791" y="979" type="line"/>
      <point x="836" y="1186" type="line"/>
      <point x="125" y="1186" type="line"/>
    </contour>
    <component base="longs"/>
  </outline>
</glyph>
<glyph name="v-middleWelsh" format="2">
  <advance width="1192"/>
  <unicode hex="1EFD"/>
  <anchor x="477" y="0" name="bottom"/>
  <anchor x="807" y="1556" name="top"/>
  <outline>
    <contour>
      <point x="555" y="-20" type="curve" smooth="yes"/>
      <point x="879" y="-20"/>
      <point x="1087" y="238"/>
      <point x="1087" y="614" type="curve" smooth="yes"/>
      <point x="1087" y="858"/>
      <point x="967" y="995"/>
      <point x="774" y="995" type="curve" smooth="yes"/>
      <point x="702" y="995"/>
      <point x="666" y="989"/>
      <point x="621" y="975" type="curve"/>
      <point x="573" y="737" type="line"/>
      <point x="598" y="748"/>
      <point x="629" y="758"/>
      <point x="662" y="758" type="curve" smooth="yes"/>
      <point x="743" y="758"/>
      <point x="778" y="674"/>
      <point x="778" y="569" type="curve" smooth="yes"/>
      <point x="778" y="410"/>
      <point x="690" y="225"/>
      <point x="569" y="225" type="curve" smooth="yes"/>
      <point x="463" y="225"/>
      <point x="399" y="299"/>
      <point x="399" y="471" type="curve" smooth="yes"/>
      <point x="399" y="698"/>
      <point x="489" y="1098"/>
      <point x="1024" y="1389" type="curve"/>
      <point x="911" y="1556" type="line"/>
      <point x="399" y="1362"/>
      <point x="88" y="950"/>
      <point x="92" y="481" type="curve"/>
      <point x="92" y="168"/>
      <point x="262" y="-20"/>
    </contour>
  </outline>
</glyph>
<glyph name="uni1FFE" format="2">
  <advance width="553"/>
  <unicode hex="1FFE"/>
  <anchor x="410" y="1118" name="_top"/>
  <anchor x="473" y="1599" name="top"/>
  <outline>
    <contour>
      <point x="549" y="1221" type="curve"/>
      <point x="567" y="1307" type="line"/>
      <point x="498" y="1309"/>
      <point x="453" y="1327"/>
      <point x="453" y="1366" type="curve" smooth="yes"/>
      <point x="453" y="1370"/>
      <point x="453" y="1374"/>
      <point x="455" y="1380" type="curve"/>
      <point x="530" y="1382"/>
      <point x="604" y="1415"/>
      <point x="604" y="1507" type="curve" smooth="yes"/>
      <point x="604" y="1556"/>
      <point x="561" y="1599"/>
      <point x="498" y="1599" type="curve" smooth="yes"/>
      <point x="399" y="1599"/>
      <point x="332" y="1530"/>
      <point x="332" y="1411" type="curve" smooth="yes"/>
      <point x="332" y="1300"/>
      <point x="401" y="1223"/>
    </contour>
  </outline>
</glyph>
<glyph name="quoteright" format="2">
  <advance width="440"/>
  <unicode hex="2019"/>
  <outline>
    <contour>
      <point x="106" y="961" type="curve"/>
      <point x="332" y="961" type="line"/>
      <point x="428" y="1112"/>
      <point x="530" y="1298"/>
      <point x="594" y="1440" type="curve"/>
      <point x="586" y="1462" type="line"/>
      <point x="301" y="1462" type="line"/>
      <point x="250" y="1321"/>
      <point x="176" y="1122"/>
    </contour>
  </outline>
</glyph>
<glyph name="guilsinglright" format="2">
  <advance width="664"/>
  <unicode hex="203A"/>
  <outline>
    <contour>
      <point x="190" y="90" type="line"/>
      <point x="592" y="553" type="line"/>
      <point x="592" y="571" type="line"/>
      <point x="389" y="1032" type="line"/>
      <point x="143" y="930" type="line"/>
      <point x="279" y="580" type="line"/>
      <point x="0" y="246" type="line"/>
    </contour>
  </outline>
</glyph>
<glyph name="undertie" format="2">
  <advance width="1098"/>
  <unicode hex="203F"/>
  <outline>
    <contour>
      <point x="371" y="-492" type="curve" smooth="yes"/>
      <point x="594" y="-492"/>
      <point x="784" y="-365"/>
      <point x="922" y="-106" type="curve"/>
      <point x="852" y="-53" type="line"/>
      <point x="715" y="-272"/>
      <point x="537" y="-358"/>
      <point x="356" y="-358" type="curve" smooth="yes"/>
      <point x="176" y="-358"/>
      <point x="31" y="-272"/>
      <point x="-14" y="-53" type="curve"/>
      <point x="-106" y="-106" type="line"/>
      <point x="-45" y="-356"/>
      <point x="109" y="-492"/>
    </contour>
  </outline>
</glyph>
<glyph name="fourdotpunctuation" format="2">
  <advance width="1739"/>
  <unicode hex="2058"/>
  <outline>
    <contour>
      <point x="864" y="-43" type="curve" smooth="yes"/>
      <point x="961" y="-43"/>
      <point x="1032" y="6"/>
      <point x="1032" y="121" type="curve" smooth="yes"/>
      <point x="1032" y="238"/>
      <point x="961" y="285"/>
      <point x="864" y="285" type="curve" smooth="yes"/>
      <point x="764" y="285"/>
      <point x="690" y="238"/>
      <point x="690" y="121" type="curve" smooth="yes"/>
      <point x="690" y="6"/>
      <point x="764" y="-43"/>
    </contour>
    <contour>
      <point x="281" y="565" type="curve" smooth="yes"/>
      <point x="377" y="565"/>
      <point x="449" y="614"/>
      <point x="449" y="727" type="curve" smooth="yes"/>
      <point x="449" y="846"/>
      <point x="377" y="891"/>
      <point x="281" y="891" type="curve" smooth="yes"/>
      <point x="180" y="891"/>
      <point x="106" y="846"/>
      <point x="106" y="727" type="curve" smooth="yes"/>
      <point x="106" y="614"/>
      <point x="180" y="565"/>
    </contour>
    <contour>
      <point x="1462" y="565" type="curve" smooth="yes"/>
      <point x="1559" y="565"/>
      <point x="1630" y="614"/>
      <point x="1630" y="727" type="curve" smooth="yes"/>
      <point x="1630" y="846"/>
      <point x="1559" y="891"/>
      <point x="1462" y="891" type="curve" smooth="yes"/>
      <point x="1362" y="891"/>
      <point x="1288" y="846"/>
      <point x="1288" y="727" type="curve" smooth="yes"/>
      <point x="1288" y="614"/>
      <point x="1362" y="565"/>
    </contour>
    <contour>
      <point x="864" y="1176" type="curve" smooth="yes"/>
      <point x="961" y="1176"/>
      <point x="1032" y="1227"/>
      <point x="1032" y="1337" type="curve" smooth="yes"/>
      <point x="1032" y="1456"/>
      <point x="961" y="1501"/>
      <point x="864" y="1501" type="curve" smooth="yes"/>
      <point x="764" y="1501"/>
      <point x="690" y="1456"/>
      <point x="690" y="1337" type="curve" smooth="yes"/>
      <point x="690" y="1227"/>
      <point x="764" y="1176"/>
    </contour>
  </outline>
</glyph>
<glyph name="tricolon" format="2">
  <advance width="573"/>
  <unicode hex="205D"/>
  <outline>
    <contour>
      <point x="297" y="1210" type="curve" smooth="yes"/>
      <point x="391" y="1210"/>
      <point x="471" y="1260"/>
      <point x="471" y="1378" type="curve" smooth="yes"/>
      <point x="471" y="1503"/>
      <point x="391" y="1548"/>
      <point x="297" y="1548" type="curve" smooth="yes"/>
      <point x="201" y="1548"/>
      <point x="121" y="1503"/>
      <point x="121" y="1378" type="curve" smooth="yes"/>
      <point x="121" y="1260"/>
      <point x="201" y="1210"/>
    </contour>
    <contour>
      <point x="295" y="-41" type="curve" smooth="yes"/>
      <point x="389" y="-41"/>
      <point x="469" y="8"/>
      <point x="469" y="129" type="curve" smooth="yes"/>
      <point x="469" y="254"/>
      <point x="389" y="299"/>
      <point x="295" y="299" type="curve" smooth="yes"/>
      <point x="199" y="299"/>
      <point x="119" y="254"/>
      <point x="119" y="129" type="curve" smooth="yes"/>
      <point x="119" y="8"/>
      <point x="199" y="-41"/>
    </contour>
    <contour>
      <point x="299" y="584" type="curve" smooth="yes"/>
      <point x="393" y="584"/>
      <point x="473" y="633"/>
      <point x="473" y="752" type="curve" smooth="yes"/>
      <point x="473" y="877"/>
      <point x="393" y="922"/>
      <point x="299" y="922" type="curve" smooth="yes"/>
      <point x="203" y="922"/>
      <point x="123" y="877"/>
      <point x="123" y="752" type="curve" smooth="yes"/>
      <point x="123" y="633"/>
      <point x="203" y="584"/>
    </contour>
  </outline>
</glyph>
<glyph name="sixsuperior" format="2">
  <advance width="776"/>
  <unicode hex="2076"/>
  <outline>
    <contour>
      <point x="492" y="834" type="curve" smooth="yes"/>
      <point x="711" y="834"/>
      <point x="850" y="985"/>
      <point x="850" y="1188" type="curve" smooth="yes"/>
      <point x="850" y="1323"/>
      <point x="774" y="1421"/>
      <point x="625" y="1421" type="curve" smooth="yes"/>
      <point x="535" y="1421"/>
      <point x="467" y="1378"/>
      <point x="430" y="1333" type="curve"/>
      <point x="422" y="1333" type="line"/>
      <point x="449" y="1438"/>
      <point x="508" y="1565"/>
      <point x="694" y="1565" type="curve" smooth="yes"/>
      <point x="770" y="1565"/>
      <point x="829" y="1548"/>
      <point x="856" y="1536" type="curve"/>
      <point x="899" y="1724" type="line"/>
      <point x="868" y="1735"/>
      <point x="772" y="1745"/>
      <point x="719" y="1745" type="curve" smooth="yes"/>
      <point x="285" y="1745"/>
      <point x="186" y="1395"/>
      <point x="186" y="1186" type="curve" smooth="yes"/>
      <point x="186" y="954"/>
      <point x="307" y="834"/>
    </contour>
    <contour>
      <point x="496" y="1008" type="curve" smooth="yes"/>
      <point x="436" y="1008"/>
      <point x="406" y="1053"/>
      <point x="406" y="1116" type="curve" smooth="yes"/>
      <point x="406" y="1169"/>
      <point x="436" y="1270"/>
      <point x="539" y="1270" type="curve" smooth="yes"/>
      <point x="594" y="1270"/>
      <point x="631" y="1231"/>
      <point x="631" y="1167" type="curve" smooth="yes"/>
      <point x="631" y="1081"/>
      <point x="582" y="1008"/>
    </contour>
  </outline>
</glyph>
<glyph name="uni20B4" format="2">
  <advance width="1169"/>
  <unicode hex="20B4"/>
  <outline>
    <contour>
      <point x="530" y="-20" type="curve" smooth="yes"/>
      <point x="696" y="-20"/>
      <point x="829" y="14"/>
      <point x="950" y="72" type="curve"/>
      <point x="950" y="330" type="line"/>
      <point x="803" y="272"/>
      <point x="705" y="236"/>
      <point x="563" y="236" type="curve" smooth="yes"/>
      <point x="446" y="236"/>
      <point x="381" y="289"/>
      <point x="381" y="381" type="curve" smooth="yes"/>
      <point x="381" y="432"/>
      <point x="399" y="473"/>
      <point x="432" y="506" type="curve"/>
      <point x="1112" y="506" type="line"/>
      <point x="1145" y="657" type="line"/>
      <point x="743" y="657" type="line"/>
      <point x="852" y="700"/>
      <point x="946" y="743"/>
      <point x="1012" y="805" type="curve"/>
      <point x="1176" y="805" type="line"/>
      <point x="1208" y="956" type="line"/>
      <point x="1112" y="956" type="line"/>
      <point x="1130" y="1006"/>
      <point x="1139" y="1059"/>
      <point x="1139" y="1114" type="curve" smooth="yes"/>
      <point x="1139" y="1333"/>
      <point x="975" y="1483"/>
      <point x="727" y="1483" type="curve" smooth="yes"/>
      <point x="559" y="1483"/>
      <point x="440" y="1446"/>
      <point x="293" y="1380" type="curve"/>
      <point x="379" y="1141" type="line"/>
      <point x="510" y="1196"/>
      <point x="590" y="1225"/>
      <point x="686" y="1225" type="curve" smooth="yes"/>
      <point x="786" y="1225"/>
      <point x="844" y="1180"/>
      <point x="844" y="1104" type="curve" smooth="yes"/>
      <point x="844" y="1038"/>
      <point x="813" y="991"/>
      <point x="762" y="956" type="curve"/>
      <point x="104" y="956" type="line"/>
      <point x="72" y="805" type="line"/>
      <point x="408" y="805" type="line"/>
      <point x="326" y="768"/>
      <point x="248" y="721"/>
      <point x="190" y="657" type="curve"/>
      <point x="41" y="657" type="line"/>
      <point x="8" y="506" type="line"/>
      <point x="106" y="506" type="line"/>
      <point x="92" y="463"/>
      <point x="84" y="414"/>
      <point x="84" y="358" type="curve" smooth="yes"/>
      <point x="84" y="139"/>
      <point x="236" y="-20"/>
    </contour>
  </outline>
</glyph>
<glyph name="cadauna" format="2">
  <advance width="1706"/>
  <unicode hex="2106"/>
  <anchor x="358" y="621" name="_top"/>
  <anchor x="1266" y="700" name="top"/>
  <outline>
    <contour>
      <point x="436" y="743" type="curve"/>
      <point x="522" y="743"/>
      <point x="586" y="762"/>
      <point x="645" y="793" type="curve"/>
      <point x="645" y="946" type="line"/>
      <point x="588" y="918"/>
      <point x="537" y="895"/>
      <point x="473" y="895" type="curve" smooth="yes"/>
      <point x="406" y="895"/>
      <point x="367" y="936"/>
      <point x="367" y="1016" type="curve" smooth="yes"/>
      <point x="367" y="1163"/>
      <point x="434" y="1317"/>
      <point x="553" y="1317" type="curve"/>
      <point x="608" y="1317"/>
      <point x="649" y="1300"/>
      <point x="692" y="1280" type="curve"/>
      <point x="752" y="1425" type="line"/>
      <point x="692" y="1452"/>
      <point x="629" y="1470"/>
      <point x="545" y="1470" type="curve"/>
      <point x="309" y="1470"/>
      <point x="176" y="1253"/>
      <point x="176" y="1001" type="curve" smooth="yes"/>
      <point x="176" y="815"/>
      <point x="291" y="743"/>
    </contour>
    <contour>
      <point x="145" y="0" type="line"/>
      <point x="385" y="0" type="line"/>
      <point x="1468" y="1462" type="line"/>
      <point x="1233" y="1462" type="line"/>
    </contour>
    <contour>
      <point x="1096" y="-14" type="curve" smooth="yes"/>
      <point x="1194" y="-14"/>
      <point x="1262" y="45"/>
      <point x="1317" y="127" type="curve"/>
      <point x="1323" y="127" type="line"/>
      <point x="1311" y="-2" type="line"/>
      <point x="1454" y="-2" type="line"/>
      <point x="1604" y="700" type="line"/>
      <point x="1415" y="700" type="line"/>
      <point x="1352" y="410" type="line" smooth="yes"/>
      <point x="1321" y="260"/>
      <point x="1260" y="137"/>
      <point x="1174" y="137" type="curve" smooth="yes"/>
      <point x="1128" y="137"/>
      <point x="1106" y="162"/>
      <point x="1106" y="215" type="curve" smooth="yes"/>
      <point x="1106" y="236"/>
      <point x="1110" y="262"/>
      <point x="1116" y="289" type="curve" smooth="yes"/>
      <point x="1202" y="700" type="line"/>
      <point x="1012" y="700" type="line"/>
      <point x="932" y="322" type="line"/>
      <point x="922" y="270"/>
      <point x="918" y="217"/>
      <point x="918" y="186" type="curve" smooth="yes"/>
      <point x="918" y="63"/>
      <point x="975" y="-14"/>
    </contour>
  </outline>
</glyph>
<glyph name="minus" format="2">
  <advance width="1128"/>
  <unicode hex="2212"/>
  <outline>
    <contour>
      <point x="109" y="612" type="line"/>
      <point x="1061" y="612" type="line"/>
      <point x="1061" y="831" type="line"/>
      <point x="109" y="831" type="line"/>
    </contour>
  </outline>
</glyph>
<glyph name="uni2C60" format="2">
  <advance width="1061"/>
  <unicode hex="2C60"/>
  <anchor x="412" y="0" name="bottom"/>
  <anchor x="723" y="1462" name="top"/>
  <outline>
    <contour>
      <point x="53" y="0" type="line"/>
      <point x="870" y="0" type="line"/>
      <point x="924" y="256" type="line"/>
      <point x="412" y="256" type="line"/>
      <point x="453" y="455" type="line"/>
      <point x="760" y="455" type="line"/>
      <point x="797" y="631" type="line"/>
      <point x="492" y="631" type="line"/>
      <point x="522" y="782" type="line"/>
      <point x="829" y="782" type="line"/>
      <point x="866" y="954" type="line"/>
      <point x="559" y="954" type="line"/>
      <point x="668" y="1462" type="line"/>
      <point x="362" y="1462" type="line"/>
      <point x="254" y="954" type="line"/>
      <point x="80" y="954" type="line"/>
      <point x="43" y="782" type="line"/>
      <point x="219" y="782" type="line"/>
      <point x="186" y="631" type="line"/>
      <point x="10" y="631" type="line"/>
      <point x="-27" y="455" type="line"/>
      <point x="150" y="455" type="line"/>
    </contour>
  </outline>
</glyph>
<glyph name="uni2C71" format="2">
  <advance width="1090"/>
  <unicode hex="2C71"/>
  <anchor x="426" y="0" name="bottom"/>
  <anchor x="664" y="1118" name="top"/>
  <outline>
    <contour>
      <point x="242" y="0" type="line"/>
      <point x="580" y="0" type="line"/>
      <point x="922" y="682" type="line" smooth="yes"/>
      <point x="1006" y="852"/>
      <point x="1053" y="883"/>
      <point x="1108" y="883" type="curve" smooth="yes"/>
      <point x="1130" y="883"/>
      <point x="1149" y="879"/>
      <point x="1171" y="872" type="curve"/>
      <point x="1229" y="1108" type="line"/>
      <point x="1186" y="1124"/>
      <point x="1124" y="1139"/>
      <point x="1057" y="1139" type="curve" smooth="yes"/>
      <point x="893" y="1139"/>
      <point x="801" y="1028"/>
      <point x="731" y="889" type="curve" smooth="yes"/>
      <point x="549" y="524" type="line" smooth="yes"/>
      <point x="520" y="467"/>
      <point x="483" y="369"/>
      <point x="459" y="301" type="curve"/>
      <point x="449" y="301" type="line"/>
      <point x="449" y="375"/>
      <point x="446" y="481"/>
      <point x="442" y="532" type="curve" smooth="yes"/>
      <point x="397" y="1118" type="line"/>
      <point x="102" y="1118" type="line"/>
    </contour>
  </outline>
</glyph>
<glyph name="uni2C73" format="2">
  <advance width="1716"/>
  <unicode hex="2C73"/>
  <anchor x="709" y="0" name="bottom"/>
  <anchor x="946" y="1118" name="top"/>
  <outline>
    <contour>
      <point x="176" y="0" type="line"/>
      <point x="500" y="0" type="line"/>
      <point x="733" y="541" type="line" smooth="yes"/>
      <point x="766" y="616"/>
      <point x="815" y="762"/>
      <point x="850" y="860" type="curve"/>
      <point x="862" y="860" type="line"/>
      <point x="856" y="762"/>
      <point x="852" y="604"/>
      <point x="852" y="520" type="curve" smooth="yes"/>
      <point x="858" y="0" type="line"/>
      <point x="1182" y="0" type="line"/>
      <point x="1505" y="700" type="line" smooth="yes"/>
      <point x="1579" y="858"/>
      <point x="1628" y="883"/>
      <point x="1677" y="883" type="curve" smooth="yes"/>
      <point x="1700" y="883"/>
      <point x="1722" y="877"/>
      <point x="1737" y="872" type="curve"/>
      <point x="1794" y="1108" type="line"/>
      <point x="1753" y="1122"/>
      <point x="1698" y="1139"/>
      <point x="1640" y="1139" type="curve" smooth="yes"/>
      <point x="1468" y="1139"/>
      <point x="1389" y="1026"/>
      <point x="1300" y="836" type="curve" smooth="yes"/>
      <point x="1202" y="623" type="line" smooth="yes"/>
      <point x="1145" y="500"/>
      <point x="1104" y="385"/>
      <point x="1071" y="285" type="curve"/>
      <point x="1063" y="285" type="line"/>
      <point x="1073" y="395"/>
      <point x="1073" y="489"/>
      <point x="1073" y="582" type="curve" smooth="yes"/>
      <point x="1073" y="1118" type="line"/>
      <point x="745" y="1118" type="line"/>
      <point x="514" y="582" type="line" smooth="yes"/>
      <point x="498" y="545"/>
      <point x="436" y="387"/>
      <point x="408" y="285" type="curve"/>
      <point x="399" y="285" type="line"/>
      <point x="410" y="410"/>
      <point x="410" y="514"/>
      <point x="410" y="623" type="curve" smooth="yes"/>
      <point x="406" y="1118" type="line"/>
      <point x="125" y="1118" type="line"/>
    </contour>
  </outline>
</glyph>
<glyph name="threeemdash" format="2">
  <advance width="5734"/>
  <unicode hex="2E3B"/>
  <outline>
    <contour>
      <point x="41" y="436" type="line"/>
      <point x="5644" y="436" type="line"/>
      <point x="5693" y="666" type="line"/>
      <point x="90" y="666" type="line"/>
    </contour>
  </outline>
</glyph>
<glyph name="uniA651" format="2">
  <advance width="1872"/>
  <unicode hex="A651"/>
  <outline>
    <contour>
      <point x="92" y="889" type="line"/>
      <point x="444" y="889" type="line"/>
      <point x="793" y="1118" type="line"/>
      <point x="141" y="1118" type="line"/>
    </contour>
    <component base="afii10093" xOffset="227"/>
  </outline>
</glyph>
<glyph name="uniA654" format="2">
  <advance width="2060"/>
  <unicode hex="A654"/>
  <outline>
    <contour>
      <point x="633" y="-20" type="curve" smooth="yes"/>
      <point x="1047" y="-20"/>
      <point x="1251" y="303"/>
      <point x="1327" y="631" type="curve"/>
      <point x="1589" y="631" type="line"/>
      <point x="1456" y="0" type="line"/>
      <point x="1761" y="0" type="line"/>
      <point x="2071" y="1462" type="line"/>
      <point x="1765" y="1462" type="line"/>
      <point x="1645" y="889" type="line"/>
      <point x="1360" y="889" type="line"/>
      <point x="1360" y="901"/>
      <point x="1360" y="915"/>
      <point x="1360" y="928" type="curve" smooth="yes"/>
      <point x="1360" y="1264"/>
      <point x="1180" y="1485"/>
      <point x="846" y="1485" type="curve" smooth="yes"/>
      <point x="342" y="1485"/>
      <point x="127" y="1014"/>
      <point x="127" y="526" type="curve" smooth="yes"/>
      <point x="127" y="197"/>
      <point x="299" y="-20"/>
    </contour>
    <contour>
      <point x="659" y="238" type="curve" smooth="yes"/>
      <point x="512" y="238"/>
      <point x="438" y="354"/>
      <point x="438" y="535" type="curve" smooth="yes"/>
      <point x="438" y="954"/>
      <point x="612" y="1225"/>
      <point x="823" y="1225" type="curve" smooth="yes"/>
      <point x="965" y="1225"/>
      <point x="1049" y="1122"/>
      <point x="1049" y="928" type="curve" smooth="yes"/>
      <point x="1049" y="553"/>
      <point x="885" y="238"/>
    </contour>
  </outline>
</glyph>
<glyph name="uniA656" format="2">
  <advance width="1980"/>
  <unicode hex="A656"/>
  <outline>
    <contour>
      <point x="569" y="0" type="line"/>
      <point x="891" y="0" type="line"/>
      <point x="1188" y="608" type="line"/>
      <point x="1520" y="608" type="line"/>
      <point x="1561" y="0" type="line"/>
      <point x="1858" y="0" type="line"/>
      <point x="1712" y="1468" type="line"/>
      <point x="1337" y="1468" type="line"/>
    </contour>
    <contour>
      <point x="51" y="0" type="line"/>
      <point x="350" y="0" type="line"/>
      <point x="479" y="608" type="line"/>
      <point x="1026" y="608" type="line"/>
      <point x="1081" y="870" type="line"/>
      <point x="535" y="870" type="line"/>
      <point x="662" y="1462" type="line"/>
      <point x="362" y="1462" type="line"/>
    </contour>
    <contour>
      <point x="1315" y="870" type="line"/>
      <point x="1356" y="956" type="line" smooth="yes"/>
      <point x="1389" y="1028"/>
      <point x="1466" y="1198"/>
      <point x="1487" y="1282" type="curve"/>
      <point x="1481" y="1196"/>
      <point x="1495" y="1032"/>
      <point x="1499" y="954" type="curve" smooth="yes"/>
      <point x="1503" y="870" type="line"/>
    </contour>
  </outline>
</glyph>
<glyph name="uniA65A" format="2">
  <advance width="1495"/>
  <unicode hex="A65A"/>
  <outline>
    <contour>
      <point x="-86" y="0" type="line"/>
      <point x="231" y="0" type="line"/>
      <point x="348" y="274" type="line"/>
      <point x="586" y="274" type="line"/>
      <point x="528" y="0" type="line"/>
      <point x="786" y="0" type="line"/>
      <point x="842" y="274" type="line"/>
      <point x="1038" y="274" type="line"/>
      <point x="1049" y="0" type="line"/>
      <point x="1348" y="0" type="line"/>
      <point x="1315" y="444" type="line" smooth="yes"/>
      <point x="1298" y="668"/>
      <point x="1237" y="788"/>
      <point x="1069" y="838" type="curve"/>
      <point x="1509" y="1319" type="line"/>
      <point x="1536" y="1462" type="line"/>
      <point x="352" y="1462" type="line"/>
      <point x="324" y="1325" type="line"/>
      <point x="547" y="852" type="line"/>
      <point x="358" y="817"/>
      <point x="256" y="735"/>
      <point x="166" y="541" type="curve" smooth="yes"/>
    </contour>
    <contour>
      <point x="446" y="473" type="line"/>
      <point x="512" y="596"/>
      <point x="586" y="670"/>
      <point x="729" y="670" type="curve"/>
      <point x="858" y="670" type="line" smooth="yes"/>
      <point x="971" y="670"/>
      <point x="1018" y="602"/>
      <point x="1036" y="473" type="curve"/>
    </contour>
    <contour>
      <point x="809" y="881" type="line"/>
      <point x="664" y="1204" type="line"/>
      <point x="1069" y="1204" type="line"/>
    </contour>
  </outline>
</glyph>
<glyph name="uniA690" format="2">
  <advance width="1087"/>
  <unicode hex="A690"/>
  <outline>
    <contour>
      <point x="176" y="-406" type="curve" smooth="yes"/>
      <point x="219" y="-406"/>
      <point x="264" y="-395"/>
      <point x="305" y="-383" type="curve"/>
      <point x="344" y="-203" type="line"/>
      <point x="317" y="-211"/>
      <point x="289" y="-221"/>
      <point x="260" y="-221" type="curve" smooth="yes"/>
      <point x="215" y="-221"/>
      <point x="188" y="-197"/>
      <point x="188" y="-154" type="curve" smooth="yes"/>
      <point x="188" y="-78"/>
      <point x="258" y="0"/>
      <point x="385" y="0" type="curve"/>
      <point x="356" y="137" type="line"/>
      <point x="184" y="137"/>
      <point x="-23" y="29"/>
      <point x="-23" y="-205" type="curve" smooth="yes"/>
      <point x="-23" y="-326"/>
      <point x="49" y="-406"/>
    </contour>
    <component base="T"/>
  </outline>
</glyph>
<glyph name="uniA692" format="2">
  <advance width="1706"/>
  <unicode hex="A692"/>
  <outline>
    <contour>
      <point x="1102" y="0" type="line"/>
      <point x="1407" y="0" type="line"/>
      <point x="1716" y="1462" type="line"/>
      <point x="1411" y="1462" type="line"/>
      <point x="1272" y="807" type="line"/>
      <point x="1165" y="764"/>
      <point x="1057" y="733"/>
      <point x="936" y="733" type="curve" smooth="yes"/>
      <point x="838" y="733"/>
      <point x="782" y="778"/>
      <point x="782" y="864" type="curve" smooth="yes"/>
      <point x="782" y="889"/>
      <point x="786" y="915"/>
      <point x="793" y="946" type="curve" smooth="yes"/>
      <point x="901" y="1462" type="line"/>
      <point x="596" y="1462" type="line"/>
      <point x="483" y="913" type="line" smooth="yes"/>
      <point x="475" y="870"/>
      <point x="471" y="831"/>
      <point x="471" y="797" type="curve" smooth="yes"/>
      <point x="471" y="559"/>
      <point x="651" y="475"/>
      <point x="831" y="475" type="curve" smooth="yes"/>
      <point x="971" y="475"/>
      <point x="1110" y="516"/>
      <point x="1221" y="561" type="curve"/>
    </contour>
    <contour>
      <point x="211" y="1200" type="line"/>
      <point x="1176" y="1200" type="line"/>
      <point x="1231" y="1462" type="line"/>
      <point x="266" y="1462" type="line"/>
    </contour>
  </outline>
</glyph>
<glyph name="uniA723" format="2">
  <advance width="594"/>
  <unicode hex="A723"/>
  <outline>
    <contour>
      <point x="240" y="670" type="line"/>
      <point x="285" y="670" type="line" smooth="yes"/>
      <point x="535" y="670"/>
      <point x="651" y="840"/>
      <point x="651" y="1001" type="curve" smooth="yes"/>
      <point x="651" y="1130"/>
      <point x="573" y="1221"/>
      <point x="434" y="1221" type="curve" smooth="yes"/>
      <point x="301" y="1221" type="line"/>
      <point x="258" y="1022" type="line"/>
      <point x="377" y="1022" type="line" smooth="yes"/>
      <point x="430" y="1022"/>
      <point x="469" y="993"/>
      <point x="469" y="936" type="curve" smooth="yes"/>
      <point x="469" y="842"/>
      <point x="408" y="778"/>
      <point x="301" y="778" type="curve" smooth="yes"/>
      <point x="262" y="778" type="line"/>
    </contour>
    <contour>
      <point x="96" y="-2" type="line"/>
      <point x="139" y="-2" type="line" smooth="yes"/>
      <point x="346" y="-2"/>
      <point x="451" y="139"/>
      <point x="451" y="309" type="curve" smooth="yes"/>
      <point x="451" y="436"/>
      <point x="379" y="504"/>
      <point x="262" y="504" type="curve" smooth="yes"/>
      <point x="154" y="504" type="line"/>
      <point x="111" y="305" type="line"/>
      <point x="207" y="305" type="line" smooth="yes"/>
      <point x="260" y="305"/>
      <point x="289" y="279"/>
      <point x="289" y="236" type="curve" smooth="yes"/>
      <point x="289" y="139"/>
      <point x="223" y="109"/>
      <point x="156" y="109" type="curve" smooth="yes"/>
      <point x="119" y="109" type="line"/>
    </contour>
  </outline>
</glyph>
<glyph name="uniA72D" format="2">
  <advance width="1069"/>
  <unicode hex="A72D"/>
  <outline>
    <contour>
      <point x="-90" y="0" type="line"/>
      <point x="795" y="0" type="line"/>
      <point x="1030" y="1118" type="line"/>
      <point x="719" y="1118" type="line"/>
      <point x="-43" y="233" type="line"/>
    </contour>
    <contour>
      <point x="365" y="-492" type="curve" smooth="yes"/>
      <point x="616" y="-492"/>
      <point x="725" y="-330"/>
      <point x="770" y="-117" type="curve" smooth="yes"/>
      <point x="815" y="96" type="line"/>
      <point x="518" y="96" type="line"/>
      <point x="477" y="-76" type="line" smooth="yes"/>
      <point x="449" y="-195"/>
      <point x="387" y="-246"/>
      <point x="305" y="-246" type="curve" smooth="yes"/>
      <point x="266" y="-246"/>
      <point x="233" y="-240"/>
      <point x="190" y="-225" type="curve"/>
      <point x="190" y="-467" type="line"/>
      <point x="231" y="-481"/>
      <point x="301" y="-492"/>
    </contour>
    <contour>
      <point x="244" y="240" type="line"/>
      <point x="530" y="565" type="line" smooth="yes"/>
      <point x="582" y="623"/>
      <point x="629" y="690"/>
      <point x="662" y="743" type="curve"/>
      <point x="672" y="743" type="line"/>
      <point x="655" y="694"/>
      <point x="614" y="553"/>
      <point x="594" y="449" type="curve" smooth="yes"/>
      <point x="551" y="240" type="line"/>
    </contour>
  </outline>
</glyph>
<glyph name="uniA733" format="2">
  <advance width="1870"/>
  <unicode hex="A733"/>
  <outline>
    <contour>
      <point x="401" y="-20" type="curve" smooth="yes"/>
      <point x="543" y="-20"/>
      <point x="631" y="47"/>
      <point x="711" y="145" type="curve"/>
      <point x="721" y="145" type="line"/>
      <point x="707" y="0" type="line"/>
      <point x="895" y="0" type="line"/>
      <point x="911" y="94" type="line"/>
      <point x="967" y="18"/>
      <point x="1040" y="-20"/>
      <point x="1130" y="-20" type="curve" smooth="yes"/>
      <point x="1241" y="-20"/>
      <point x="1300" y="33"/>
      <point x="1378" y="145" type="curve"/>
      <point x="1386" y="145" type="line"/>
      <point x="1372" y="0" type="line"/>
      <point x="1597" y="0" type="line"/>
      <point x="1835" y="1118" type="line"/>
      <point x="1604" y="1118" type="line"/>
      <point x="1546" y="975" type="line"/>
      <point x="1538" y="975" type="line"/>
      <point x="1505" y="1073"/>
      <point x="1452" y="1139"/>
      <point x="1335" y="1139" type="curve"/>
      <point x="1255" y="1139"/>
      <point x="1165" y="1100"/>
      <point x="1112" y="1028" type="curve"/>
      <point x="1130" y="1118" type="line"/>
      <point x="942" y="1118" type="line"/>
      <point x="885" y="975" type="line"/>
      <point x="874" y="975" type="line"/>
      <point x="813" y="1081"/>
      <point x="741" y="1139"/>
      <point x="604" y="1139" type="curve" smooth="yes"/>
      <point x="303" y="1139"/>
      <point x="92" y="776"/>
      <point x="92" y="385" type="curve" smooth="yes"/>
      <point x="92" y="121"/>
      <point x="217" y="-20"/>
    </contour>
    <contour>
      <point x="520" y="223" type="curve" smooth="yes"/>
      <point x="455" y="223"/>
      <point x="397" y="272"/>
      <point x="397" y="399" type="curve" smooth="yes"/>
      <point x="397" y="635"/>
      <point x="504" y="895"/>
      <point x="655" y="895" type="curve" smooth="yes"/>
      <point x="748" y="895"/>
      <point x="791" y="825"/>
      <point x="791" y="719" type="curve" smooth="yes"/>
      <point x="791" y="655"/>
      <point x="782" y="590"/>
      <point x="768" y="530" type="curve" smooth="yes"/>
      <point x="727" y="360"/>
      <point x="637" y="223"/>
    </contour>
    <contour>
      <point x="1178" y="223" type="curve" smooth="yes"/>
      <point x="1096" y="223"/>
      <point x="1049" y="283"/>
      <point x="1049" y="399" type="curve" smooth="yes"/>
      <point x="1049" y="635"/>
      <point x="1165" y="895"/>
      <point x="1313" y="895" type="curve" smooth="yes"/>
      <point x="1399" y="895"/>
      <point x="1452" y="825"/>
      <point x="1452" y="731" type="curve" smooth="yes"/>
      <point x="1452" y="668"/>
      <point x="1448" y="616"/>
      <point x="1438" y="563" type="curve" smooth="yes"/>
      <point x="1405" y="389"/>
      <point x="1300" y="223"/>
    </contour>
  </outline>
</glyph>
<glyph name="uniA73C" format="2">
  <advance width="1815"/>
  <unicode hex="A73C"/>
  <outline>
    <contour>
      <point x="653" y="-489" type="curve" smooth="yes"/>
      <point x="942" y="-489"/>
      <point x="1069" y="-334"/>
      <point x="1223" y="-37" type="curve" smooth="yes"/>
      <point x="1999" y="1462" type="line"/>
      <point x="1683" y="1462" type="line"/>
      <point x="1227" y="528" type="line" smooth="yes"/>
      <point x="1180" y="432"/>
      <point x="1157" y="360"/>
      <point x="1128" y="274" type="curve"/>
      <point x="1108" y="274" type="line"/>
      <point x="1114" y="352"/>
      <point x="1114" y="444"/>
      <point x="1110" y="528" type="curve" smooth="yes"/>
      <point x="1057" y="1462" type="line"/>
      <point x="639" y="1462" type="line"/>
      <point x="-123" y="0" type="line"/>
      <point x="197" y="0" type="line"/>
      <point x="367" y="348" type="line"/>
      <point x="854" y="348" type="line"/>
      <point x="872" y="0" type="line"/>
      <point x="840" y="-61" type="line" smooth="yes"/>
      <point x="793" y="-147"/>
      <point x="737" y="-227"/>
      <point x="625" y="-227" type="curve" smooth="yes"/>
      <point x="567" y="-227"/>
      <point x="500" y="-219"/>
      <point x="442" y="-190" type="curve"/>
      <point x="442" y="-457" type="line"/>
      <point x="504" y="-479"/>
      <point x="588" y="-489"/>
    </contour>
    <contour>
      <point x="492" y="608" type="line"/>
      <point x="680" y="991" type="line" smooth="yes"/>
      <point x="715" y="1063"/>
      <point x="764" y="1176"/>
      <point x="791" y="1249" type="curve"/>
      <point x="811" y="1249" type="line"/>
      <point x="811" y="1159"/>
      <point x="817" y="1020"/>
      <point x="821" y="961" type="curve" smooth="yes"/>
      <point x="840" y="608" type="line"/>
    </contour>
  </outline>
</glyph>
<glyph name="uniA74A" format="2">
  <advance width="1466"/>
  <unicode hex="A74A"/>
  <outline>
    <contour>
      <point x="47" y="631" type="line"/>
      <point x="1511" y="631" type="line"/>
      <point x="1561" y="864" type="line"/>
      <point x="96" y="864" type="line"/>
    </contour>
    <component base="O" xOffset="20"/>
  </outline>
</glyph>
<glyph name="uniA75B" format="2">
  <advance width="1030"/>
  <unicode hex="A75B"/>
  <anchor x="358" y="8" name="bottom"/>
  <anchor x="580" y="1118" name="top"/>
  <outline>
    <contour>
      <point x="580" y="0" type="line"/>
      <point x="903" y="0" type="line"/>
      <point x="688" y="455" type="line"/>
      <point x="856" y="510"/>
      <point x="979" y="606"/>
      <point x="979" y="817" type="curve" smooth="yes"/>
      <point x="979" y="1010"/>
      <point x="827" y="1118"/>
      <point x="592" y="1118" type="curve" smooth="yes"/>
      <point x="139" y="1118" type="line"/>
      <point x="393" y="903" type="line"/>
      <point x="522" y="903" type="line" smooth="yes"/>
      <point x="625" y="903"/>
      <point x="676" y="854"/>
      <point x="676" y="786" type="curve" smooth="yes"/>
      <point x="676" y="666"/>
      <point x="559" y="621"/>
      <point x="461" y="621" type="curve" smooth="yes"/>
      <point x="231" y="621" type="line"/>
      <point x="188" y="416" type="line"/>
      <point x="403" y="416" type="line"/>
    </contour>
  </outline>
</glyph>
<glyph name="uniA768" format="2">
  <advance width="1434"/>
  <unicode hex="A768"/>
  <outline>
    <contour>
      <point x="-170" y="-492" type="line"/>
      <point x="477" y="-492" type="line"/>
      <point x="514" y="-315" type="line"/>
      <point x="358" y="-233" type="line"/>
      <point x="403" y="-20" type="line"/>
      <point x="1618" y="1462" type="line"/>
      <point x="1257" y="1462" type="line"/>
      <point x="664" y="694" type="line" smooth="yes"/>
      <point x="600" y="612"/>
      <point x="514" y="479"/>
      <point x="469" y="395" type="curve"/>
      <point x="461" y="397" type="line"/>
      <point x="489" y="494"/>
      <point x="535" y="633"/>
      <point x="555" y="717" type="curve" smooth="yes"/>
      <point x="670" y="1204" type="line"/>
      <point x="860" y="1286" type="line"/>
      <point x="897" y="1462" type="line"/>
      <point x="250" y="1462" type="line"/>
      <point x="213" y="1286" type="line"/>
      <point x="365" y="1204" type="line"/>
      <point x="53" y="-233" type="line"/>
      <point x="-133" y="-315" type="line"/>
    </contour>
  </outline>
</glyph>
<glyph name="uniA76F" format="2">
  <advance width="1251"/>
  <unicode hex="A76F"/>
  <anchor x="444" y="-492" name="bottom"/>
  <anchor x="776" y="1118" name="top"/>
  <outline>
    <contour>
      <point x="205" y="-492" type="line"/>
      <point x="772" y="-492"/>
      <point x="1122" y="-57"/>
      <point x="1122" y="553" type="curve" smooth="yes"/>
      <point x="1122" y="903"/>
      <point x="989" y="1141"/>
      <point x="645" y="1141" type="curve" smooth="yes"/>
      <point x="322" y="1141"/>
      <point x="102" y="844"/>
      <point x="102" y="504" type="curve" smooth="yes"/>
      <point x="102" y="248"/>
      <point x="242" y="80"/>
      <point x="473" y="80" type="curve" smooth="yes"/>
      <point x="526" y="80"/>
      <point x="573" y="98"/>
      <point x="616" y="121" type="curve"/>
      <point x="616" y="344" type="line"/>
      <point x="594" y="338"/>
      <point x="569" y="330"/>
      <point x="539" y="330" type="curve" smooth="yes"/>
      <point x="473" y="330"/>
      <point x="408" y="393"/>
      <point x="408" y="543" type="curve" smooth="yes"/>
      <point x="408" y="731"/>
      <point x="500" y="893"/>
      <point x="637" y="893" type="curve" smooth="yes"/>
      <point x="782" y="893"/>
      <point x="823" y="760"/>
      <point x="823" y="584" type="curve" smooth="yes"/>
      <point x="823" y="-16"/>
      <point x="541" y="-256"/>
      <point x="205" y="-256" type="curve"/>
    </contour>
  </outline>
</glyph>
<glyph name="uniA775" format="2">
  <advance width="1235"/>
  <unicode hex="A775"/>
  <outline>
    <contour>
      <point x="37" y="0" type="line"/>
      <point x="338" y="0" type="line"/>
      <point x="451" y="528" type="line"/>
      <point x="504" y="780"/>
      <point x="702" y="856"/>
      <point x="922" y="856" type="curve" smooth="yes"/>
      <point x="995" y="856"/>
      <point x="1135" y="850"/>
      <point x="1229" y="842" type="curve"/>
      <point x="1311" y="1130" type="line"/>
      <point x="1196" y="1139"/>
      <point x="1049" y="1139"/>
      <point x="979" y="1139" type="curve" smooth="yes"/>
      <point x="793" y="1139"/>
      <point x="616" y="1059"/>
      <point x="500" y="911" type="curve"/>
      <point x="485" y="911" type="line"/>
      <point x="504" y="1118" type="line"/>
      <point x="274" y="1118" type="line"/>
    </contour>
    <contour>
      <point x="623" y="555" type="line"/>
      <point x="811" y="555" type="line"/>
      <point x="1272" y="1427" type="line"/>
      <point x="1085" y="1427" type="line"/>
    </contour>
  </outline>
</glyph>
<glyph name="uniA78B" format="2">
  <advance width="586"/>
  <unicode hex="A78B"/>
  <outline>
    <contour>
      <point x="150" y="485" type="line"/>
      <point x="391" y="485" type="line"/>
      <point x="647" y="1462" type="line"/>
      <point x="307" y="1462" type="line"/>
    </contour>
  </outline>
</glyph>
<glyph name="uniA78D" format="2">
  <advance width="1434"/>
  <unicode hex="A78D"/>
  <outline>
    <contour>
      <point x="829" y="0" type="line"/>
      <point x="1135" y="0" type="line"/>
      <point x="1444" y="1462" type="line"/>
      <point x="1139" y="1462" type="line"/>
      <point x="1018" y="889" type="line"/>
      <point x="547" y="889" type="line"/>
      <point x="668" y="1462" type="line"/>
      <point x="362" y="1462" type="line"/>
      <point x="186" y="631" type="line"/>
      <point x="963" y="631" type="line"/>
    </contour>
  </outline>
</glyph>
<glyph name="uniA792" format="2">
  <advance width="1253"/>
  <unicode hex="A792"/>
  <outline>
    <contour>
      <point x="39" y="616" type="line"/>
      <point x="739" y="616" type="line"/>
      <point x="795" y="874" type="line"/>
      <point x="94" y="874" type="line"/>
    </contour>
    <component base="C" xOffset="27"/>
  </outline>
</glyph>
<glyph name="uniA7AC" format="2">
  <advance width="1444"/>
  <unicode hex="A7AC"/>
  <outline>
    <contour>
      <point x="496" y="-492" type="curve" smooth="yes"/>
      <point x="817" y="-492"/>
      <point x="1059" y="-406"/>
      <point x="1149" y="25" type="curve" smooth="yes"/>
      <point x="1456" y="1462" type="line"/>
      <point x="1225" y="1462" type="line"/>
      <point x="1147" y="1266" type="line"/>
      <point x="1137" y="1266" type="line"/>
      <point x="1071" y="1403"/>
      <point x="965" y="1485"/>
      <point x="791" y="1485" type="curve" smooth="yes"/>
      <point x="383" y="1485"/>
      <point x="131" y="1014"/>
      <point x="131" y="606" type="curve" smooth="yes"/>
      <point x="131" y="229"/>
      <point x="362" y="80"/>
      <point x="557" y="80" type="curve" smooth="yes"/>
      <point x="717" y="80"/>
      <point x="831" y="145"/>
      <point x="913" y="250" type="curve"/>
      <point x="922" y="244" type="line"/>
      <point x="899" y="195"/>
      <point x="883" y="150"/>
      <point x="868" y="82" type="curve" smooth="yes"/>
      <point x="850" y="0" type="line" smooth="yes"/>
      <point x="807" y="-190"/>
      <point x="680" y="-244"/>
      <point x="471" y="-244" type="curve" smooth="yes"/>
      <point x="332" y="-244"/>
      <point x="188" y="-199"/>
      <point x="53" y="-133" type="curve"/>
      <point x="53" y="-403" type="line"/>
      <point x="186" y="-453"/>
      <point x="309" y="-492"/>
    </contour>
    <contour>
      <point x="651" y="324" type="curve" smooth="yes"/>
      <point x="518" y="324"/>
      <point x="438" y="422"/>
      <point x="438" y="610" type="curve" smooth="yes"/>
      <point x="438" y="905"/>
      <point x="571" y="1239"/>
      <point x="850" y="1239" type="curve" smooth="yes"/>
      <point x="989" y="1239"/>
      <point x="1059" y="1128"/>
      <point x="1059" y="993" type="curve" smooth="yes"/>
      <point x="1059" y="727"/>
      <point x="909" y="324"/>
    </contour>
  </outline>
</glyph>
<glyph name="uniA7FA" format="2">
  <advance width="1645"/>
  <unicode hex="A7FA"/>
  <anchor x="705" y="0" name="bottom"/>
  <anchor x="942" y="1118" name="top"/>
  <outline>
    <contour>
      <point x="53" y="0" type="line"/>
      <point x="1356" y="0" type="line"/>
      <point x="1593" y="1118" type="line"/>
      <point x="1354" y="1118" type="line"/>
      <point x="1157" y="197" type="line"/>
      <point x="866" y="197" type="line"/>
      <point x="1061" y="1118" type="line"/>
      <point x="821" y="1118" type="line"/>
      <point x="625" y="197" type="line"/>
      <point x="334" y="197" type="line"/>
      <point x="528" y="1118" type="line"/>
      <point x="289" y="1118" type="line"/>
    </contour>
  </outline>
</glyph>
<glyph name="uniA7FF" format="2">
  <advance width="2277"/>
  <unicode hex="A7FF"/>
  <outline>
    <contour>
      <point x="-123" y="0" type="line"/>
      <point x="186" y="0" type="line"/>
      <point x="528" y="774" type="line" smooth="yes"/>
      <point x="569" y="866"/>
      <point x="621" y="1010"/>
      <point x="657" y="1122" type="curve"/>
      <point x="666" y="1122" type="line"/>
      <point x="659" y="1012"/>
      <point x="659" y="866"/>
      <point x="659" y="797" type="curve" smooth="yes"/>
      <point x="666" y="0" type="line"/>
      <point x="1001" y="0" type="line"/>
      <point x="1339" y="821" type="line" smooth="yes"/>
      <point x="1376" y="911"/>
      <point x="1417" y="1012"/>
      <point x="1452" y="1120" type="curve"/>
      <point x="1460" y="1120" type="line"/>
      <point x="1454" y="1028"/>
      <point x="1452" y="973"/>
      <point x="1454" y="856" type="curve" smooth="yes"/>
      <point x="1473" y="0" type="line"/>
      <point x="1823" y="0" type="line"/>
      <point x="2470" y="1462" type="line"/>
      <point x="2169" y="1462" type="line"/>
      <point x="1835" y="666" type="line" smooth="yes"/>
      <point x="1796" y="573"/>
      <point x="1743" y="430"/>
      <point x="1706" y="317" type="curve"/>
      <point x="1698" y="317" type="line"/>
      <point x="1706" y="428"/>
      <point x="1708" y="573"/>
      <point x="1706" y="643" type="curve" smooth="yes"/>
      <point x="1673" y="1462" type="line"/>
      <point x="1378" y="1462" type="line"/>
      <point x="1020" y="643" type="line" smooth="yes"/>
      <point x="983" y="559"/>
      <point x="934" y="424"/>
      <point x="897" y="317" type="curve"/>
      <point x="889" y="317" type="line"/>
      <point x="895" y="416"/>
      <point x="897" y="545"/>
      <point x="895" y="670" type="curve" smooth="yes"/>
      <point x="877" y="1462" type="line"/>
      <point x="559" y="1462" type="line"/>
    </contour>
  </outline>
</glyph>
<glyph name="uniAB31" format="2">
  <advance width="1751"/>
  <unicode hex="AB31"/>
  <outline>
    <contour>
      <point x="399" y="-20" type="curve" smooth="yes"/>
      <point x="541" y="-20"/>
      <point x="629" y="47"/>
      <point x="709" y="145" type="curve"/>
      <point x="719" y="145" type="line"/>
      <point x="705" y="0" type="line"/>
      <point x="893" y="0" type="line"/>
      <point x="909" y="94" type="line"/>
      <point x="965" y="20"/>
      <point x="1055" y="-20"/>
      <point x="1192" y="-20" type="curve" smooth="yes"/>
      <point x="1425" y="-20"/>
      <point x="1628" y="109"/>
      <point x="1628" y="358" type="curve" smooth="yes"/>
      <point x="1628" y="547"/>
      <point x="1458" y="674"/>
      <point x="1137" y="674" type="curve" smooth="yes"/>
      <point x="1085" y="674" type="line"/>
      <point x="1126" y="829"/>
      <point x="1231" y="911"/>
      <point x="1386" y="911" type="curve" smooth="yes"/>
      <point x="1503" y="911"/>
      <point x="1587" y="891"/>
      <point x="1700" y="829" type="curve"/>
      <point x="1700" y="1057" type="line"/>
      <point x="1634" y="1100"/>
      <point x="1511" y="1139"/>
      <point x="1382" y="1139" type="curve" smooth="yes"/>
      <point x="1286" y="1139"/>
      <point x="1167" y="1100"/>
      <point x="1110" y="1028" type="curve"/>
      <point x="1128" y="1118" type="line"/>
      <point x="940" y="1118" type="line"/>
      <point x="883" y="975" type="line"/>
      <point x="872" y="975" type="line"/>
      <point x="811" y="1081"/>
      <point x="739" y="1139"/>
      <point x="602" y="1139" type="curve" smooth="yes"/>
      <point x="301" y="1139"/>
      <point x="90" y="776"/>
      <point x="90" y="385" type="curve" smooth="yes"/>
      <point x="90" y="121"/>
      <point x="215" y="-20"/>
    </contour>
    <contour>
      <point x="518" y="223" type="curve" smooth="yes"/>
      <point x="453" y="223"/>
      <point x="395" y="272"/>
      <point x="395" y="399" type="curve" smooth="yes"/>
      <point x="395" y="635"/>
      <point x="502" y="895"/>
      <point x="653" y="895" type="curve" smooth="yes"/>
      <point x="745" y="895"/>
      <point x="788" y="825"/>
      <point x="788" y="719" type="curve" smooth="yes"/>
      <point x="788" y="655"/>
      <point x="780" y="590"/>
      <point x="766" y="530" type="curve" smooth="yes"/>
      <point x="725" y="360"/>
      <point x="635" y="223"/>
    </contour>
    <contour>
      <point x="1212" y="197" type="curve" smooth="yes"/>
      <point x="1106" y="197"/>
      <point x="1042" y="289"/>
      <point x="1042" y="428" type="curve" smooth="yes"/>
      <point x="1042" y="442"/>
      <point x="1042" y="457"/>
      <point x="1044" y="471" type="curve"/>
      <point x="1102" y="471" type="line" smooth="yes"/>
      <point x="1264" y="471"/>
      <point x="1339" y="414"/>
      <point x="1339" y="328" type="curve" smooth="yes"/>
      <point x="1339" y="246"/>
      <point x="1286" y="197"/>
    </contour>
  </outline>
</glyph>
<glyph name="uniAB34" format="2">
  <advance width="1528"/>
  <unicode hex="AB34"/>
  <outline>
    <contour>
      <point x="227" y="96" type="curve" smooth="yes"/>
      <point x="266" y="96"/>
      <point x="309" y="104"/>
      <point x="330" y="115" type="curve"/>
      <point x="332" y="309" type="line"/>
      <point x="315" y="305"/>
      <point x="299" y="303"/>
      <point x="281" y="303" type="curve" smooth="yes"/>
      <point x="238" y="303"/>
      <point x="201" y="330"/>
      <point x="201" y="391" type="curve" smooth="yes"/>
      <point x="201" y="467"/>
      <point x="260" y="502"/>
      <point x="334" y="502" type="curve" smooth="yes"/>
      <point x="449" y="502"/>
      <point x="559" y="442"/>
      <point x="696" y="442" type="curve"/>
      <point x="750" y="442" type="line"/>
      <point x="793" y="647" type="line"/>
      <point x="745" y="647" type="line" smooth="yes"/>
      <point x="598" y="647"/>
      <point x="467" y="707"/>
      <point x="328" y="707" type="curve" smooth="yes"/>
      <point x="86" y="707"/>
      <point x="-18" y="545"/>
      <point x="-18" y="377" type="curve" smooth="yes"/>
      <point x="-18" y="172"/>
      <point x="102" y="96"/>
    </contour>
    <component base="e" xOffset="387"/>
  </outline>
</glyph>
<glyph name="uniAB3C" format="2">
  <advance width="1237"/>
  <unicode hex="AB3C"/>
  <outline>
    <contour>
      <point x="838" y="-510" type="curve"/>
      <point x="989" y="-453" type="line"/>
      <point x="961" y="-236"/>
      <point x="813" y="14"/>
      <point x="561" y="14" type="curve" smooth="yes"/>
      <point x="371" y="14"/>
      <point x="274" y="-113"/>
      <point x="274" y="-258" type="curve" smooth="yes"/>
      <point x="274" y="-401"/>
      <point x="371" y="-492"/>
      <point x="539" y="-492" type="curve" smooth="yes"/>
      <point x="762" y="-492"/>
      <point x="907" y="-328"/>
      <point x="973" y="-18" type="curve" smooth="yes"/>
      <point x="1110" y="637" type="line"/>
      <point x="1124" y="705"/>
      <point x="1133" y="768"/>
      <point x="1133" y="817" type="curve" smooth="yes"/>
      <point x="1133" y="1014"/>
      <point x="1036" y="1139"/>
      <point x="844" y="1139" type="curve" smooth="yes"/>
      <point x="688" y="1139"/>
      <point x="578" y="1044"/>
      <point x="492" y="911" type="curve"/>
      <point x="483" y="911" type="line"/>
      <point x="504" y="1118" type="line"/>
      <point x="274" y="1118" type="line"/>
      <point x="37" y="0" type="line"/>
      <point x="338" y="0" type="line"/>
      <point x="436" y="463" type="line" smooth="yes"/>
      <point x="487" y="700"/>
      <point x="584" y="895"/>
      <point x="721" y="895" type="curve" smooth="yes"/>
      <point x="793" y="895"/>
      <point x="829" y="856"/>
      <point x="829" y="772" type="curve" smooth="yes"/>
      <point x="829" y="739"/>
      <point x="823" y="698"/>
      <point x="813" y="653" type="curve" smooth="yes"/>
      <point x="653" y="-117" type="line" smooth="yes"/>
      <point x="618" y="-281"/>
      <point x="565" y="-309"/>
      <point x="526" y="-309" type="curve" smooth="yes"/>
      <point x="487" y="-309"/>
      <point x="465" y="-279"/>
      <point x="465" y="-242" type="curve" smooth="yes"/>
      <point x="465" y="-188"/>
      <point x="504" y="-147"/>
      <point x="565" y="-147" type="curve" smooth="yes"/>
      <point x="684" y="-147"/>
      <point x="807" y="-317"/>
    </contour>
  </outline>
</glyph>
<glyph name="uniAB41" format="2">
  <advance width="1806"/>
  <unicode hex="AB41"/>
  <outline>
    <contour>
      <point x="934" y="-82" type="line"/>
      <point x="1632" y="1130" type="line"/>
      <point x="1495" y="1219" type="line"/>
      <point x="793" y="0" type="line"/>
    </contour>
    <component base="oe" xScale="-1" yScale="-1" xOffset="1806" yOffset="1118"/>
  </outline>
</glyph>
<glyph name="uniAB43" format="2">
  <advance width="1901"/>
  <unicode hex="AB43"/>
  <outline>
    <contour>
      <point x="485" y="-20" type="curve"/>
      <point x="676" y="-20"/>
      <point x="801" y="57"/>
      <point x="915" y="180" type="curve"/>
      <point x="860" y="403" type="line"/>
      <point x="762" y="299"/>
      <point x="645" y="223"/>
      <point x="547" y="223" type="curve" smooth="yes"/>
      <point x="459" y="223"/>
      <point x="395" y="289"/>
      <point x="395" y="432" type="curve" smooth="yes"/>
      <point x="395" y="651"/>
      <point x="504" y="895"/>
      <point x="688" y="895" type="curve"/>
      <point x="713" y="895"/>
      <point x="725" y="893"/>
      <point x="739" y="891" type="curve"/>
      <point x="868" y="1114" type="line"/>
      <point x="807" y="1135"/>
      <point x="750" y="1139"/>
      <point x="682" y="1139" type="curve"/>
      <point x="303" y="1139"/>
      <point x="90" y="793"/>
      <point x="90" y="391" type="curve" smooth="yes"/>
      <point x="90" y="123"/>
      <point x="264" y="-20"/>
    </contour>
    <component base="o" xOffset="702"/>
  </outline>
</glyph>
<glyph name="uniAB45" format="2">
  <advance width="1264"/>
  <unicode hex="AB45"/>
  <outline>
    <contour>
      <point x="47" y="0" type="line"/>
      <point x="342" y="0" type="line"/>
      <point x="389" y="225" type="line" smooth="yes"/>
      <point x="422" y="387"/>
      <point x="500" y="467"/>
      <point x="614" y="467" type="curve" smooth="yes"/>
      <point x="696" y="467"/>
      <point x="745" y="418"/>
      <point x="745" y="326" type="curve" smooth="yes"/>
      <point x="745" y="303"/>
      <point x="743" y="281"/>
      <point x="737" y="254" type="curve" smooth="yes"/>
      <point x="684" y="0" type="line"/>
      <point x="979" y="0" type="line"/>
      <point x="1026" y="219" type="line" smooth="yes"/>
      <point x="1036" y="264"/>
      <point x="1040" y="305"/>
      <point x="1040" y="344" type="curve" smooth="yes"/>
      <point x="1040" y="573"/>
      <point x="887" y="713"/>
      <point x="635" y="713" type="curve" smooth="yes"/>
      <point x="369" y="713"/>
      <point x="168" y="569"/>
      <point x="96" y="233" type="curve" smooth="yes"/>
    </contour>
    <contour>
      <point x="483" y="555" type="line"/>
      <point x="778" y="555" type="line"/>
      <point x="897" y="1118" type="line"/>
      <point x="602" y="1118" type="line"/>
    </contour>
  </outline>
</glyph>
<glyph name="uniAB50" format="2">
  <advance width="1853"/>
  <unicode hex="AB50"/>
  <outline>
    <contour>
      <point x="383" y="-20" type="curve" smooth="yes"/>
      <point x="539" y="-20"/>
      <point x="655" y="74"/>
      <point x="739" y="207" type="curve"/>
      <point x="748" y="207" type="line"/>
      <point x="774" y="66"/>
      <point x="856" y="-20"/>
      <point x="1010" y="-20" type="curve" smooth="yes"/>
      <point x="1165" y="-20"/>
      <point x="1276" y="74"/>
      <point x="1362" y="207" type="curve"/>
      <point x="1370" y="207" type="line"/>
      <point x="1350" y="0" type="line"/>
      <point x="1579" y="0" type="line"/>
      <point x="1817" y="1118" type="line"/>
      <point x="1516" y="1118" type="line"/>
      <point x="1417" y="655" type="line" smooth="yes"/>
      <point x="1366" y="418"/>
      <point x="1270" y="223"/>
      <point x="1133" y="223" type="curve" smooth="yes"/>
      <point x="1067" y="223"/>
      <point x="1034" y="262"/>
      <point x="1034" y="346" type="curve" smooth="yes"/>
      <point x="1034" y="379"/>
      <point x="1040" y="420"/>
      <point x="1051" y="465" type="curve" smooth="yes"/>
      <point x="1102" y="707" type="line"/>
      <point x="801" y="707" type="line"/>
      <point x="791" y="653" type="line" smooth="yes"/>
      <point x="743" y="412"/>
      <point x="643" y="223"/>
      <point x="506" y="223" type="curve" smooth="yes"/>
      <point x="440" y="223"/>
      <point x="408" y="262"/>
      <point x="408" y="346" type="curve" smooth="yes"/>
      <point x="408" y="379"/>
      <point x="414" y="420"/>
      <point x="424" y="465" type="curve" smooth="yes"/>
      <point x="561" y="1118" type="line"/>
      <point x="260" y="1118" type="line"/>
      <point x="127" y="481" type="line" smooth="yes"/>
      <point x="113" y="414"/>
      <point x="104" y="350"/>
      <point x="104" y="301" type="curve" smooth="yes"/>
      <point x="104" y="104"/>
      <point x="197" y="-20"/>
    </contour>
    <contour>
      <point x="997" y="846" type="curve" smooth="yes"/>
      <point x="1120" y="846"/>
      <point x="1178" y="918"/>
      <point x="1178" y="1024" type="curve" smooth="yes"/>
      <point x="1178" y="1114"/>
      <point x="1108" y="1145"/>
      <point x="1028" y="1145" type="curve" smooth="yes"/>
      <point x="913" y="1145"/>
      <point x="846" y="1083"/>
      <point x="846" y="969" type="curve" smooth="yes"/>
      <point x="846" y="879"/>
      <point x="911" y="846"/>
    </contour>
  </outline>
</glyph>
<glyph name="uniAB5A" format="2">
  <advance width="1229"/>
  <unicode hex="AB5A"/>
  <outline>
    <contour>
      <point x="412" y="-492" type="curve" smooth="yes"/>
      <point x="688" y="-492"/>
      <point x="883" y="-379"/>
      <point x="958" y="-27" type="curve" smooth="yes"/>
      <point x="1118" y="725" type="line"/>
      <point x="817" y="725" type="line"/>
      <point x="803" y="655" type="line" smooth="yes"/>
      <point x="754" y="418"/>
      <point x="655" y="223"/>
      <point x="518" y="223" type="curve" smooth="yes"/>
      <point x="446" y="223"/>
      <point x="410" y="262"/>
      <point x="410" y="346" type="curve" smooth="yes"/>
      <point x="410" y="379"/>
      <point x="416" y="420"/>
      <point x="426" y="465" type="curve" smooth="yes"/>
      <point x="563" y="1118" type="line"/>
      <point x="262" y="1118" type="line"/>
      <point x="135" y="514" type="line"/>
      <point x="119" y="434"/>
      <point x="111" y="350"/>
      <point x="111" y="301" type="curve" smooth="yes"/>
      <point x="111" y="104"/>
      <point x="203" y="-20"/>
      <point x="395" y="-20" type="curve" smooth="yes"/>
      <point x="543" y="-20"/>
      <point x="633" y="57"/>
      <point x="709" y="150" type="curve"/>
      <point x="717" y="150" type="line"/>
      <point x="705" y="109"/>
      <point x="682" y="35"/>
      <point x="668" y="-14" type="curve" smooth="yes"/>
      <point x="659" y="-45" type="line" smooth="yes"/>
      <point x="623" y="-182"/>
      <point x="535" y="-244"/>
      <point x="395" y="-244" type="curve" smooth="yes"/>
      <point x="266" y="-244"/>
      <point x="152" y="-213"/>
      <point x="47" y="-158" type="curve"/>
      <point x="47" y="-420" type="line"/>
      <point x="147" y="-465"/>
      <point x="244" y="-492"/>
    </contour>
  </outline>
</glyph>
<glyph name="uniFE21" format="2">
  <unicode hex="FE21"/>
  <anchor x="102" y="1118" name="_top"/>
  <outline>
    <contour>
      <point x="657" y="1202" type="curve"/>
      <point x="846" y="1202" type="line"/>
      <point x="836" y="1468"/>
      <point x="614" y="1608"/>
      <point x="207" y="1608" type="curve"/>
      <point x="164" y="1405" type="line"/>
      <point x="457" y="1403"/>
      <point x="600" y="1319"/>
    </contour>
  </outline>
</glyph>
<glyph name="uniFE2E" format="2">
  <unicode hex="FE2E"/>
  <anchor x="117" y="1118" name="_top"/>
  <outline>
    <contour>
      <point x="-84" y="1147" type="curve" smooth="yes"/>
      <point x="-16" y="1147"/>
      <point x="18" y="1186"/>
      <point x="39" y="1241" type="curve"/>
      <point x="479" y="1241" type="line"/>
      <point x="479" y="1391" type="line"/>
      <point x="-47" y="1391" type="line" smooth="yes"/>
      <point x="-133" y="1391"/>
      <point x="-182" y="1327"/>
      <point x="-182" y="1251" type="curve" smooth="yes"/>
      <point x="-182" y="1192"/>
      <point x="-147" y="1147"/>
    </contour>
  </outline>
</glyph>
<glyph name="I.salt" format="2">
  <advance width="784"/>
  <anchor x="274" y="0" name="bottom"/>
  <anchor x="571" y="1462" name="top"/>
  <anchor x="936" y="1462" name="topright"/>
  <outline>
    <contour>
      <point x="-59" y="0" type="line"/>
      <point x="588" y="0" type="line"/>
      <point x="625" y="176" type="line"/>
      <point x="469" y="258" type="line"/>
      <point x="670" y="1204" type="line"/>
      <point x="860" y="1286" type="line"/>
      <point x="897" y="1462" type="line"/>
      <point x="250" y="1462" type="line"/>
      <point x="213" y="1286" type="line"/>
      <point x="365" y="1204" type="line"/>
      <point x="164" y="258" type="line"/>
      <point x="-23" y="176" type="line"/>
    </contour>
  </outline>
</glyph>
<glyph name="J.salt" format="2">
  <advance width="985"/>
  <anchor x="299" y="0" name="bottom"/>
  <anchor x="844" y="1462" name="top"/>
  <anchor x="1137" y="1462" name="topright"/>
  <outline>
    <contour>
      <point x="270" y="-20" type="curve" smooth="yes"/>
      <point x="549" y="-20"/>
      <point x="711" y="113"/>
      <point x="782" y="449" type="curve" smooth="yes"/>
      <point x="997" y="1462" type="line"/>
      <point x="692" y="1462" type="line"/>
      <point x="487" y="492" type="line" smooth="yes"/>
      <point x="451" y="317"/>
      <point x="369" y="240"/>
      <point x="238" y="240" type="curve" smooth="yes"/>
      <point x="137" y="240"/>
      <point x="53" y="266"/>
      <point x="-14" y="295" type="curve"/>
      <point x="-14" y="41" type="line"/>
      <point x="57" y="8"/>
      <point x="137" y="-20"/>
    </contour>
  </outline>
</glyph>
<glyph name="a.ss01" format="2">
  <advance width="1217"/>
  <anchor x="489" y="0" name="bottom"/>
  <anchor x="727" y="1118" name="top"/>
  <anchor x="1294" y="1118" name="topright"/>
  <outline>
    <contour>
      <point x="356" y="-20" type="curve" smooth="yes"/>
      <point x="549" y="-20"/>
      <point x="621" y="51"/>
      <point x="717" y="152" type="curve"/>
      <point x="725" y="152" type="line"/>
      <point x="752" y="0" type="line"/>
      <point x="965" y="0" type="line"/>
      <point x="1106" y="668" type="line" smooth="yes"/>
      <point x="1118" y="723"/>
      <point x="1124" y="772"/>
      <point x="1124" y="817" type="curve" smooth="yes"/>
      <point x="1124" y="1034"/>
      <point x="965" y="1141"/>
      <point x="709" y="1141" type="curve" smooth="yes"/>
      <point x="551" y="1141"/>
      <point x="414" y="1102"/>
      <point x="283" y="1040" type="curve"/>
      <point x="338" y="834" type="line"/>
      <point x="453" y="881"/>
      <point x="563" y="915"/>
      <point x="672" y="915" type="curve" smooth="yes"/>
      <point x="772" y="915"/>
      <point x="825" y="879"/>
      <point x="825" y="797" type="curve" smooth="yes"/>
      <point x="825" y="780"/>
      <point x="823" y="764"/>
      <point x="819" y="745" type="curve" smooth="yes"/>
      <point x="809" y="696" type="line"/>
      <point x="610" y="690" type="line" smooth="yes"/>
      <point x="264" y="680"/>
      <point x="37" y="551"/>
      <point x="37" y="287" type="curve" smooth="yes"/>
      <point x="37" y="127"/>
      <point x="143" y="-20"/>
    </contour>
    <contour>
      <point x="471" y="203" type="curve" smooth="yes"/>
      <point x="383" y="203"/>
      <point x="348" y="254"/>
      <point x="348" y="307" type="curve" smooth="yes"/>
      <point x="348" y="440"/>
      <point x="475" y="508"/>
      <point x="651" y="514" type="curve" smooth="yes"/>
      <point x="772" y="518" type="line"/>
      <point x="760" y="461" type="line" smooth="yes"/>
      <point x="729" y="319"/>
      <point x="600" y="203"/>
    </contour>
  </outline>
</glyph>
<glyph name="g.salt" format="2">
  <advance width="1217"/>
  <anchor x="385" y="-492" name="bottom"/>
  <anchor x="721" y="1118" name="top"/>
  <anchor x="1294" y="1118" name="topright"/>
  <outline>
    <contour>
      <point x="391" y="-492" type="curve" smooth="yes"/>
      <point x="668" y="-492"/>
      <point x="862" y="-379"/>
      <point x="938" y="-27" type="curve" smooth="yes"/>
      <point x="1182" y="1118" type="line"/>
      <point x="950" y="1118" type="line"/>
      <point x="893" y="975" type="line"/>
      <point x="885" y="975" type="line"/>
      <point x="819" y="1075"/>
      <point x="748" y="1139"/>
      <point x="602" y="1139" type="curve" smooth="yes"/>
      <point x="297" y="1139"/>
      <point x="90" y="750"/>
      <point x="90" y="385" type="curve" smooth="yes"/>
      <point x="90" y="102"/>
      <point x="229" y="-20"/>
      <point x="391" y="-20" type="curve" smooth="yes"/>
      <point x="530" y="-20"/>
      <point x="616" y="57"/>
      <point x="688" y="150" type="curve"/>
      <point x="696" y="150" type="line"/>
      <point x="684" y="109"/>
      <point x="662" y="35"/>
      <point x="647" y="-14" type="curve" smooth="yes"/>
      <point x="639" y="-45" type="line" smooth="yes"/>
      <point x="602" y="-182"/>
      <point x="514" y="-244"/>
      <point x="375" y="-244" type="curve" smooth="yes"/>
      <point x="246" y="-244"/>
      <point x="131" y="-213"/>
      <point x="27" y="-158" type="curve"/>
      <point x="27" y="-420" type="line"/>
      <point x="127" y="-465"/>
      <point x="223" y="-492"/>
    </contour>
    <contour>
      <point x="537" y="223" type="curve" smooth="yes"/>
      <point x="449" y="223"/>
      <point x="395" y="283"/>
      <point x="395" y="399" type="curve" smooth="yes"/>
      <point x="395" y="635"/>
      <point x="510" y="895"/>
      <point x="662" y="895" type="curve" smooth="yes"/>
      <point x="745" y="895"/>
      <point x="799" y="825"/>
      <point x="799" y="719" type="curve" smooth="yes"/>
      <point x="799" y="516"/>
      <point x="705" y="223"/>
    </contour>
  </outline>
</glyph>
<glyph name="question.sc" format="2">
  <advance width="831"/>
  <outline>
    <contour>
      <point x="215" y="414" type="curve"/>
      <point x="459" y="414" type="line"/>
      <point x="481" y="496"/>
      <point x="510" y="530"/>
      <point x="641" y="606" type="curve" smooth="yes"/>
      <point x="764" y="680"/>
      <point x="874" y="758"/>
      <point x="874" y="934" type="curve" smooth="yes"/>
      <point x="874" y="1108"/>
      <point x="735" y="1212"/>
      <point x="512" y="1212" type="curve" smooth="yes"/>
      <point x="373" y="1212"/>
      <point x="238" y="1165"/>
      <point x="131" y="1104" type="curve"/>
      <point x="227" y="885" type="line"/>
      <point x="330" y="942"/>
      <point x="424" y="971"/>
      <point x="492" y="971" type="curve" smooth="yes"/>
      <point x="559" y="971"/>
      <point x="582" y="944"/>
      <point x="582" y="905" type="curve" smooth="yes"/>
      <point x="582" y="858"/>
      <point x="545" y="825"/>
      <point x="434" y="752" type="curve"/>
      <point x="295" y="662"/>
      <point x="252" y="608"/>
    </contour>
    <contour>
      <point x="293" y="-20" type="curve" smooth="yes"/>
      <point x="408" y="-20"/>
      <point x="483" y="41"/>
      <point x="483" y="160" type="curve" smooth="yes"/>
      <point x="483" y="242"/>
      <point x="430" y="287"/>
      <point x="340" y="287" type="curve" smooth="yes"/>
      <point x="209" y="287"/>
      <point x="145" y="205"/>
      <point x="145" y="102" type="curve" smooth="yes"/>
      <point x="145" y="37"/>
      <point x="182" y="-20"/>
    </contour>
  </outline>
</glyph>
<glyph name="uni1FDD0306" format="2">
  <advance width="819"/>
  <anchor x="545" y="1118" name="_top"/>
  <anchor x="602" y="1855" name="top"/>
  <outline>
    <contour>
      <point x="559" y="1188" type="curve" smooth="yes"/>
      <point x="778" y="1188"/>
      <point x="905" y="1294"/>
      <point x="948" y="1456" type="curve"/>
      <point x="799" y="1456" type="line"/>
      <point x="762" y="1397"/>
      <point x="707" y="1356"/>
      <point x="573" y="1356" type="curve" smooth="yes"/>
      <point x="446" y="1356"/>
      <point x="401" y="1391"/>
      <point x="393" y="1456" type="curve"/>
      <point x="246" y="1456" type="line"/>
      <point x="246" y="1282"/>
      <point x="340" y="1188"/>
    </contour>
    <contour>
      <point x="537" y="1487" type="curve"/>
      <point x="555" y="1573" type="line"/>
      <point x="485" y="1575"/>
      <point x="440" y="1604"/>
      <point x="440" y="1642" type="curve" smooth="yes"/>
      <point x="440" y="1647"/>
      <point x="440" y="1651"/>
      <point x="442" y="1655" type="curve"/>
      <point x="520" y="1661"/>
      <point x="582" y="1690"/>
      <point x="582" y="1769" type="curve" smooth="yes"/>
      <point x="582" y="1819"/>
      <point x="545" y="1855"/>
      <point x="485" y="1855" type="curve" smooth="yes"/>
      <point x="397" y="1855"/>
      <point x="326" y="1794"/>
      <point x="326" y="1673" type="curve" smooth="yes"/>
      <point x="326" y="1569"/>
      <point x="395" y="1489"/>
    </contour>
    <contour>
      <point x="739" y="1507" type="curve"/>
      <point x="874" y="1507" type="line"/>
      <point x="881" y="1534" type="line"/>
      <point x="870" y="1622"/>
      <point x="860" y="1737"/>
      <point x="858" y="1835" type="curve"/>
      <point x="623" y="1835" type="line"/>
      <point x="618" y="1815" type="line"/>
      <point x="637" y="1724"/>
      <point x="688" y="1610"/>
    </contour>
  </outline>
</glyph>
<glyph name="x.sc" format="2">
  <advance width="1116"/>
  <anchor x="432" y="0" name="bottom"/>
  <anchor x="686" y="1192" name="top"/>
  <anchor x="1202" y="1192" name="topright"/>
  <outline>
    <contour>
      <point x="-102" y="0" type="line"/>
      <point x="242" y="0" type="line"/>
      <point x="543" y="418" type="line"/>
      <point x="678" y="0" type="line"/>
      <point x="1014" y="0" type="line"/>
      <point x="784" y="604" type="line"/>
      <point x="1239" y="1192" type="line"/>
      <point x="891" y="1192" type="line"/>
      <point x="614" y="805" type="line"/>
      <point x="498" y="1192" type="line"/>
      <point x="176" y="1192" type="line"/>
      <point x="375" y="635" type="line"/>
    </contour>
  </outline>
</glyph>
